<svg xmlns="http://www.w3.org/2000/svg" width="286.599609375" height="265.9969787597656" viewBox="-54.008506774902344 -31.9259090423584 286.599609375 265.9969787597656"><title>Neo4j Graph Visualization</title><desc>Created using Neo4j (http://www.neo4j.com/)</desc><g class="layer relationships"><g class="relationship" transform="translate(156.37416066191065 193.1269317971031) rotate(233.49261642718477)"><path class="outline" fill="#A5ABB6" stroke="none" d="M 25 0.5 L 35.667455740521405 0.5 L 35.667455740521405 -0.5 L 25 -0.5 Z M 71.4408932405214 0.5 L 82.10834898104281 0.5 L 82.10834898104281 3.5 L 89.10834898104281 0 L 82.10834898104281 -3.5 L 82.10834898104281 -0.5 L 71.4408932405214 -0.5 Z"/><text text-anchor="middle" pointer-events="none" font-size="8px" fill="#000000" x="53.554174490521405" y="3" transform="rotate(180 53.554174490521405 0)" font-family="sans-serif">WROTE</text></g><g class="relationship" transform="translate(203.59109421084935 99.88152033141151) rotate(539.2397480275915)"><path class="outline" fill="#A5ABB6" stroke="none" d="M 25 0.5 L 31.27531660338274 0.5 L 31.27531660338274 -0.5 L 25 -0.5 Z M 76.83781660338275 0.5 L 83.11313320676548 0.5 L 83.11313320676548 3.5 L 90.11313320676548 0 L 83.11313320676548 -3.5 L 83.11313320676548 -0.5 L 76.83781660338275 -0.5 Z"/><text text-anchor="middle" pointer-events="none" font-size="8px" fill="#000000" x="54.05656660338274" y="3" transform="rotate(180 54.05656660338274 0)" font-family="sans-serif">ACTED_IN</text></g><g class="relationship" transform="translate(149.59662004511264 4.128663781287812) rotate(482.1358055710997)"><path class="outline" fill="#A5ABB6" stroke="none" d="M 25 0.5 L 36.05389468933305 0.5 L 36.05389468933305 -0.5 L 25 -0.5 Z M 71.82733218933305 0.5 L 82.8812268786661 0.5 L 82.8812268786661 3.5 L 89.8812268786661 0 L 82.8812268786661 -3.5 L 82.8812268786661 -0.5 L 71.82733218933305 -0.5 Z"/><text text-anchor="middle" pointer-events="none" font-size="8px" fill="#000000" x="53.94061343933305" y="3" transform="rotate(180 53.94061343933305 0)" font-family="sans-serif">WROTE</text></g><g class="relationship" transform="translate(40.46132804940996 -2.9259090251099193) rotate(425.28272582700964)"><path class="outline" fill="#A5ABB6" stroke="none" d="M 25 0.5 L 31.147668463838464 0.5 L 31.147668463838464 -0.5 L 25 -0.5 Z M 76.71016846383847 0.5 L 82.85783692767693 0.5 L 82.85783692767693 3.5 L 89.85783692767693 0 L 82.85783692767693 -3.5 L 82.85783692767693 -0.5 L 76.71016846383847 -0.5 Z"/><text text-anchor="middle" pointer-events="none" font-size="8px" fill="#000000" x="53.928918463838464" y="3" font-family="sans-serif">ACTED_IN</text></g><g class="relationship" transform="translate(-25.00850487444924 101.94970218327188) rotate(359.7269923636893)"><path class="outline" fill="#A5ABB6" stroke="none" d="M 25 0.5 L 30.46769389190051 0.5 L 30.46769389190051 -0.5 L 25 -0.5 Z M 76.03019389190051 0.5 L 81.49788778380102 0.5 L 81.49788778380102 3.5 L 88.49788778380102 0 L 81.49788778380102 -3.5 L 81.49788778380102 -0.5 L 76.03019389190051 -0.5 Z"/><text text-anchor="middle" pointer-events="none" font-size="8px" fill="#000000" x="53.24894389190051" y="3" font-family="sans-serif">ACTED_IN</text></g><g class="relationship" transform="translate(40.51991182651369 205.07107407318918) rotate(294.8316625510192)"><path class="outline" fill="#A5ABB6" stroke="none" d="M 25 0.5 L 30.16596669440144 0.5 L 30.16596669440144 -0.5 L 25 -0.5 Z M 77.05659169440145 0.5 L 82.22255838880288 0.5 L 82.22255838880288 3.5 L 89.22255838880288 0 L 82.22255838880288 -3.5 L 82.22255838880288 -0.5 L 77.05659169440145 -0.5 Z"/><text text-anchor="middle" pointer-events="none" font-size="8px" fill="#000000" x="53.61127919440144" y="3" font-family="sans-serif">DIRECTED</text></g></g><g class="layer nodes"><g class="node" transform="translate(88.48809447799165,101.40890017162597)"><circle class="outline" cx="0" cy="0" r="25" fill="#57C7E3" stroke="#23b3d7" stroke-width="2px"/><text text-anchor="middle" pointer-events="none" font-family="sans-serif" dy="1.5625" font-size="25" fill="#FFFFFF"/><text text-anchor="middle" pointer-events="none" font-family="sans-serif" dy="1.5625" font-size="25" fill="#FFFFFF"/><text text-anchor="middle" pointer-events="none" font-family="sans-serif" dy="1.5625" font-size="25" fill="#FFFFFF"/><text text-anchor="middle" pointer-events="none" y="-5" font-size="10px" fill="#FFFFFF" font-family="sans-serif"> Captain</text><text text-anchor="middle" pointer-events="none" y="5" font-size="10px" fill="#FFFFFF" font-family="sans-serif"> America:</text><text text-anchor="middle" pointer-events="none" y="15" font-size="10px" fill="#FFFFFF" font-family="sans-serif"> The Fi…</text></g><g class="node" transform="translate(156.37416066191065,193.1269317971031)"><circle class="outline" cx="0" cy="0" r="25" fill="#F79767" stroke="#f36924" stroke-width="2px"/><text text-anchor="middle" pointer-events="none" font-family="sans-serif" dy="1.5625" font-size="25" fill="#FFFFFF"/><text text-anchor="middle" pointer-events="none" font-family="sans-serif" dy="1.5625" font-size="25" fill="#FFFFFF"/><text text-anchor="middle" pointer-events="none" y="0" font-size="10px" fill="#FFFFFF" font-family="sans-serif"> Stephen</text><text text-anchor="middle" pointer-events="none" y="10" font-size="10px" fill="#FFFFFF" font-family="sans-serif"> McFeely</text></g><g class="node" transform="translate(203.59109421084935,99.88152033141151)"><circle class="outline" cx="0" cy="0" r="25" fill="#F79767" stroke="#f36924" stroke-width="2px"/><text text-anchor="middle" pointer-events="none" font-family="sans-serif" dy="1.5625" font-size="25" fill="#FFFFFF"/><text text-anchor="middle" pointer-events="none" font-family="sans-serif" dy="1.5625" font-size="25" fill="#FFFFFF"/><text text-anchor="middle" pointer-events="none" y="0" font-size="10px" fill="#FFFFFF" font-family="sans-serif"> Hugo</text><text text-anchor="middle" pointer-events="none" y="10" font-size="10px" fill="#FFFFFF" font-family="sans-serif"> Weaving</text></g><g class="node" transform="translate(149.59662004511264,4.128663781287812)"><circle class="outline" cx="0" cy="0" r="25" fill="#F79767" stroke="#f36924" stroke-width="2px"/><text text-anchor="middle" pointer-events="none" font-family="sans-serif" dy="1.5625" font-size="25" fill="#FFFFFF"/><text text-anchor="middle" pointer-events="none" y="5" font-size="10px" fill="#FFFFFF" font-family="sans-serif"> Christop…</text></g><g class="node" transform="translate(40.46132804940996,-2.9259090251099193)"><circle class="outline" cx="0" cy="0" r="25" fill="#F79767" stroke="#f36924" stroke-width="2px"/><text text-anchor="middle" pointer-events="none" font-family="sans-serif" dy="1.5625" font-size="25" fill="#FFFFFF"/><text text-anchor="middle" pointer-events="none" font-family="sans-serif" dy="1.5625" font-size="25" fill="#FFFFFF"/><text text-anchor="middle" pointer-events="none" y="0" font-size="10px" fill="#FFFFFF" font-family="sans-serif"> Chris</text><text text-anchor="middle" pointer-events="none" y="10" font-size="10px" fill="#FFFFFF" font-family="sans-serif"> Evans</text></g><g class="node" transform="translate(-25.00850487444924,101.94970218327188)"><circle class="outline" cx="0" cy="0" r="25" fill="#F79767" stroke="#f36924" stroke-width="2px"/><text text-anchor="middle" pointer-events="none" font-family="sans-serif" dy="1.5625" font-size="25" fill="#FFFFFF"/><text text-anchor="middle" pointer-events="none" font-family="sans-serif" dy="1.5625" font-size="25" fill="#FFFFFF"/><text text-anchor="middle" pointer-events="none" font-family="sans-serif" dy="1.5625" font-size="25" fill="#FFFFFF"/><text text-anchor="middle" pointer-events="none" y="-5" font-size="10px" fill="#FFFFFF" font-family="sans-serif"> Samuel</text><text text-anchor="middle" pointer-events="none" y="5" font-size="10px" fill="#FFFFFF" font-family="sans-serif"> L.</text><text text-anchor="middle" pointer-events="none" y="15" font-size="10px" fill="#FFFFFF" font-family="sans-serif"> Jackson</text></g><g class="node" transform="translate(40.51991182651369,205.07107407318918)"><circle class="outline" cx="0" cy="0" r="25" fill="#F79767" stroke="#f36924" stroke-width="2px"/><text text-anchor="middle" pointer-events="none" font-family="sans-serif" dy="1.5625" font-size="25" fill="#FFFFFF"/><text text-anchor="middle" pointer-events="none" font-family="sans-serif" dy="1.5625" font-size="25" fill="#FFFFFF"/><text text-anchor="middle" pointer-events="none" y="0" font-size="10px" fill="#FFFFFF" font-family="sans-serif"> Joe</text><text text-anchor="middle" pointer-events="none" y="10" font-size="10px" fill="#FFFFFF" font-family="sans-serif"> Johnston</text></g></g></svg>