<svg xmlns="http://www.w3.org/2000/svg" width="409.78717041015625" height="398.1632995605469" viewBox="-105.63843536376953 -82.02045440673828 409.78717041015625 398.1632995605469"><title>Neo4j Graph Visualization</title><desc>Created using Neo4j (http://www.neo4j.com/)</desc><g class="layer relationships"><g class="relationship" transform="translate(65.6296769468124 287.14285523311446) rotate(280.32946340193905)"><path class="outline" fill="#A5ABB6" stroke="none" d="M 21.40063509461097,12.933012701892217 L 21.90063509461097,12.06698729810778 A 64.97246215301526 64.97246215301526 0 0 0 42.932634283534604,19.75402335966892 L 42.75634064299797,20.738360980765634 A 65.97246215301526 65.97246215301526 0 0 1 21.40063509461097,12.933012701892217 Z M 62.16073574314355,21.312028416049102 L 62.04290067502082,20.318995235978818 A 64.97246215301526 64.97246215301526 0 0 0 83.4922862047695,13.887869853059136 L 82.1483897722268,11.205717288681225 L 89.97462492707507,11.199136937855826 L 85.28414811482642,17.464073272229687 L 83.94025168228373,14.781920707851775 A 65.97246215301526 65.97246215301526 0 0 1 62.16073574314355,21.312028416049102"/><text text-anchor="middle" pointer-events="none" font-size="8px" fill="#000000" x="52.452097465055004" y="24.243053380046675" font-family="sans-serif">trek</text></g><g class="relationship" transform="translate(85.77062425813202 176.6374290301331) rotate(346.2295308433936)"><path class="outline" fill="#A5ABB6" stroke="none" d="M 24.018736134675446,-6.953439040707552 L 24.277555179777966,-5.987513214418485 A 139.47310616586537 139.47310616586537 0 0 1 35.428644309260164,-8.490684967776957 L 35.24977680059379,-9.47455813762329 A 140.47310616586537 140.47310616586537 0 0 0 24.018736134675446,-6.953439040707552 Z M 81.6623339187132,-10.11776232619195 L 81.51079969864357,-9.12931031413072 A 139.47310616586537 139.47310616586537 0 0 1 92.72697302724887,-6.936113226965315 L 92.03111582764654,-4.017931814208115 L 99.65203919028274,-5.798809996686081 L 93.65478262671866,-10.827021777308248 L 92.95892542711633,-7.9088403645510486 A 140.47310616586537 140.47310616586537 0 0 0 81.6623339187132,-10.11776232619195"/><text text-anchor="middle" pointer-events="none" font-size="8px" fill="#000000" x="58.436233061393224" y="-8.226504695715704" font-family="sans-serif">twowheeler</text></g><g class="relationship" transform="translate(206.17757752020316 147.1284394615855) rotate(305.22848569965015)"><path class="outline" fill="#A5ABB6" stroke="none" d="M 24.018736134675446,-6.953439040707552 L 24.277555179777966,-5.987513214418485 A 130.7388420283999 130.7388420283999 0 0 1 46.62412157526836,-9.936352224964082 L 46.5362277582678,-10.93248207439791 A 131.7388420283999 131.7388420283999 0 0 0 24.018736134675446,-6.953439040707552 Z M 65.9262876555498,-11.210562415993394 L 65.86699587718053,-10.212321721061642 A 130.7388420283999 130.7388420283999 0 0 1 88.31761224806687,-6.905936418868685 L 87.62457364496844,-3.9870843337819144 L 95.24377354711906,-5.775321692486832 L 89.24166371886476,-10.797739198984381 L 88.54862511576633,-7.878887113897609 A 131.7388420283999 131.7388420283999 0 0 0 65.9262876555498,-11.210562415993394"/><text text-anchor="middle" pointer-events="none" font-size="8px" fill="#000000" x="56.23330401097844" y="-7.928837011673124" font-family="sans-serif">trek</text></g><g class="relationship" transform="translate(275.1487389803202 49.45871165824826) rotate(235.34933718827216)"><path class="outline" fill="#A5ABB6" stroke="none" d="M 25 0.5 L 49.11925380236704 0.5 L 49.11925380236704 -0.5 L 25 -0.5 Z M 68.45519130236704 0.5 L 92.57444510473408 0.5 L 92.57444510473408 3.5 L 99.57444510473408 0 L 92.57444510473408 -3.5 L 92.57444510473408 -0.5 L 68.45519130236704 -0.5 Z"/><text text-anchor="middle" pointer-events="none" font-size="8px" fill="#000000" x="58.78722255236704" y="3" transform="rotate(180 58.78722255236704 0)" font-family="sans-serif">trek</text></g><g class="relationship" transform="translate(204.31927640832964 -53.02045502901257) rotate(530.7419527672473)"><path class="outline" fill="#A5ABB6" stroke="none" d="M 25 0.5 L 46.34086858978814 0.5 L 46.34086858978814 -0.5 L 25 -0.5 Z M 65.67680608978813 0.5 L 87.01767467957627 0.5 L 87.01767467957627 3.5 L 94.01767467957627 0 L 87.01767467957627 -3.5 L 87.01767467957627 -0.5 L 65.67680608978813 -0.5 Z"/><text text-anchor="middle" pointer-events="none" font-size="8px" fill="#000000" x="56.00883733978814" y="3" transform="rotate(180 56.00883733978814 0)" font-family="sans-serif">trek</text></g><g class="relationship" transform="translate(65.6296769468124 287.14285523311446) rotate(280.32946340193905)"><path class="outline" fill="#A5ABB6" stroke="none" d="M 25 0.5 L 41.65708877344551 0.5 L 41.65708877344551 -0.5 L 25 -0.5 Z M 63.66880752344551 0.5 L 80.32589629689102 0.5 L 80.32589629689102 3.5 L 87.32589629689102 0 L 80.32589629689102 -3.5 L 80.32589629689102 -0.5 L 63.66880752344551 -0.5 Z"/><text text-anchor="middle" pointer-events="none" font-size="8px" fill="#000000" x="52.66294814844551" y="3" font-family="sans-serif">road</text></g><g class="relationship" transform="translate(65.6296769468124 287.14285523311446) rotate(280.32946340193905)"><path class="outline" fill="#A5ABB6" stroke="none" d="M 21.40063509461097,-12.933012701892217 L 21.90063509461097,-12.06698729810778 A 64.97246215301526 64.97246215301526 0 0 1 23.18334033500547,-12.788313434536441 L 22.70308262578358,-13.665440866973107 A 65.97246215301526 65.97246215301526 0 0 0 21.40063509461097,-12.933012701892217 Z M 82.5968100019232,-15.436126363537717 L 82.16920819792543,-14.532159164344165 A 64.97246215301526 64.97246215301526 0 0 1 83.4922862047695,-13.887869853059136 L 82.1483897722268,-11.205717288681225 L 89.97462492707507,-11.199136937855826 L 85.28414811482642,-17.464073272229687 L 83.94025168228373,-14.781920707851775 A 65.97246215301526 65.97246215301526 0 0 0 82.5968100019232,-15.436126363537717"/><text text-anchor="middle" pointer-events="none" font-size="8px" fill="#000000" x="52.452097465055004" y="-18.243053380046675" font-family="sans-serif">PublicTransport</text></g><g class="relationship" transform="translate(85.77062425813202 176.6374290301331) rotate(346.2295308433936)"><path class="outline" fill="#A5ABB6" stroke="none" d="M 24.018736134675446,6.953439040707552 L 24.277555179777966,5.987513214418485 A 139.47310616586537 139.47310616586537 0 0 0 48.82291831510883,10.260640211803235 L 48.7400856218564,11.257203679389988 A 140.47310616586537 140.47310616586537 0 0 1 24.018736134675446,6.953439040707552 Z M 68.12780610457362,11.525886634943248 L 68.07262148610073,10.527410467033377 A 139.47310616586537 139.47310616586537 0 0 0 92.72697302724887,6.936113226965315 L 92.03111582764654,4.017931814208115 L 99.65203919028274,5.798809996686081 L 93.65478262671866,10.827021777308248 L 92.95892542711633,7.9088403645510486 A 140.47310616586537 140.47310616586537 0 0 1 68.12780610457362,11.525886634943248"/><text text-anchor="middle" pointer-events="none" font-size="8px" fill="#000000" x="58.43623306139326" y="14.226504695715704" font-family="sans-serif">trek</text></g><g class="relationship" transform="translate(206.17757752020316 147.1284394615855) rotate(305.22848569965015)"><path class="outline" fill="#A5ABB6" stroke="none" d="M 24.018736134675446,6.953439040707552 L 24.277555179777966,5.987513214418485 A 130.7388420283999 130.7388420283999 0 0 0 33.24891964929307,8.055778078109455 L 33.05872110235563,9.037523723754447 A 131.7388420283999 131.7388420283999 0 0 1 24.018736134675446,6.953439040707552 Z M 79.45259295249467,9.702876167241783 L 79.29062602465028,8.716079980440952 A 130.7388420283999 130.7388420283999 0 0 0 88.31761224806687,6.905936418868685 L 87.62457364496844,3.9870843337819144 L 95.24377354711906,5.775321692486832 L 89.24166371886476,10.797739198984381 L 88.54862511576633,7.878887113897609 A 131.7388420283999 131.7388420283999 0 0 1 79.45259295249467,9.702876167241783"/><text text-anchor="middle" pointer-events="none" font-size="8px" fill="#000000" x="56.23330401097851" y="13.928837011673124" font-family="sans-serif">twowheeler</text></g><g class="relationship" transform="translate(275.1487389803202 49.45871165824826) rotate(183.9604592718146)"><path class="outline" fill="#A5ABB6" stroke="none" d="M 21.40063509461097,12.933012701892217 L 21.90063509461097,12.06698729810778 A 55.48797355424263 55.48797355424263 0 0 0 38.36462841479611,18.342330496676865 L 38.1613412385955,19.321449653875 A 56.48797355424263 56.48797355424263 0 0 1 21.40063509461097,12.933012701892217 Z M 57.563191159504065,19.943193888829754 L 57.42300965201614,18.95306806603832 A 55.48797355424263 55.48797355424263 0 0 0 74.25500508359643,13.744715341981626 L 72.92442577232606,11.05593147256793 L 80.75059733077345,11.088160927253053 L 76.02911083195693,17.329760501199885 L 74.69853152068656,14.64097663178619 A 56.48797355424263 56.48797355424263 0 0 1 57.563191159504065,19.943193888829754"/><text text-anchor="middle" pointer-events="none" font-size="8px" fill="#000000" x="47.85137328931227" y="22.972240644817468" transform="rotate(180 47.85137328931227 19.972240644817468)" font-family="sans-serif">trek</text></g><g class="relationship" transform="translate(172.23795350326537 42.33385272406187) rotate(221.74876103508126)"><path class="outline" fill="#A5ABB6" stroke="none" d="M 24.018736134675446,6.953439040707552 L 24.277555179777966,5.987513214418485 A 120.55915112695645 120.55915112695645 0 0 0 30.719674566300828,7.525329843924311 L 30.5142908624918,8.50401137241542 A 121.55915112695645 121.55915112695645 0 0 1 24.018736134675446,6.953439040707552 Z M 76.88000257351827,9.197048708420098 L 76.703961174559,8.212665944525654 A 120.55915112695645 120.55915112695645 0 0 0 83.18916444642792,6.868076528109593 L 82.49966212409268,3.948387067311697 L 90.11669024201221,5.745852686127012 L 84.10850087620824,10.760995809173455 L 83.418998553873,7.841306348375558 A 121.55915112695645 121.55915112695645 0 0 1 76.88000257351827,9.197048708420098"/><text text-anchor="middle" pointer-events="none" font-size="8px" fill="#000000" x="53.6712669134012" y="13.581945502558185" transform="rotate(180 53.6712669134012 10.581945502558185)" font-family="sans-serif">twowheeler</text></g><g class="relationship" transform="translate(206.17757752020316 147.1284394615855) rotate(252.0545151429185)"><path class="outline" fill="#A5ABB6" stroke="none" d="M 24.018736134675446,-6.953439040707552 L 24.277555179777966,-5.987513214418485 A 112.00145272564053 112.00145272564053 0 0 1 28.60478348177411,-7.055181133696223 L 28.38459990252216,-8.030639585619127 A 113.00145272564053 113.00145272564053 0 0 0 24.018736134675446,-6.953439040707552 Z M 74.71937499549932,-8.74865042392436 L 74.52952158871823,-7.766837975473237 A 112.00145272564053 112.00145272564053 0 0 1 78.88775373836513,-6.833761294146634 L 78.20145667103675,-3.9133167500101655 L 85.81650718590495,-5.719142227736493 L 79.80281649480297,-10.72768735299526 L 79.11651942747459,-7.807242808858791 A 113.00145272564053 113.00145272564053 0 0 0 74.71937499549932,-8.74865042392436"/><text text-anchor="middle" pointer-events="none" font-size="8px" fill="#000000" x="51.522533597019226" y="-7.290365070321272" transform="rotate(180 51.522533597019226 -10.290365070321272)" font-family="sans-serif">twowheeler</text></g><g class="relationship" transform="translate(275.1487389803202 49.45871165824826) rotate(183.9604592718146)"><path class="outline" fill="#A5ABB6" stroke="none" d="M 25 0.5 L 25.291455412943783 0.5 L 25.291455412943783 -0.5 L 25 -0.5 Z M 70.86567416294378 0.5 L 71.15712957588757 0.5 L 71.15712957588757 3.5 L 78.15712957588757 0 L 71.15712957588757 -3.5 L 71.15712957588757 -0.5 L 70.86567416294378 -0.5 Z"/><text text-anchor="middle" pointer-events="none" font-size="8px" fill="#000000" x="48.07856478794378" y="3" transform="rotate(180 48.07856478794378 0)" font-family="sans-serif">twowhee…</text></g><g class="relationship" transform="translate(275.1487389803202 49.45871165824826) rotate(183.9604592718146)"><path class="outline" fill="#A5ABB6" stroke="none" d="M 21.40063509461097,-12.933012701892217 L 21.90063509461097,-12.06698729810778 A 55.48797355424263 55.48797355424263 0 0 1 37.06971655915051,-18.057298174795896 L 36.8430925808881,-19.031280501368876 A 56.48797355424263 56.48797355424263 0 0 0 21.40063509461097,-12.933012701892217 Z M 58.897313339089514,-19.738021594034187 L 58.73351402243546,-18.751527912420528 A 55.48797355424263 55.48797355424263 0 0 1 74.25500508359643,-13.744715341981626 L 72.92442577232606,-11.05593147256793 L 80.75059733077345,-11.088160927253053 L 76.02911083195693,-17.329760501199885 L 74.69853152068656,-14.64097663178619 A 56.48797355424263 56.48797355424263 0 0 0 58.897313339089514,-19.738021594034187"/><text text-anchor="middle" pointer-events="none" font-size="8px" fill="#000000" x="47.85137328931227" y="-16.972240644817468" transform="rotate(180 47.85137328931227 -19.972240644817468)" font-family="sans-serif">road</text></g><g class="relationship" transform="translate(206.17757752020316 147.1284394615855) rotate(252.0545151429185)"><path class="outline" fill="#A5ABB6" stroke="none" d="M 24.018736134675446,6.953439040707552 L 24.277555179777966,5.987513214418485 A 112.00145272564053 112.00145272564053 0 0 0 41.924680704059405,9.228211161754345 L 41.82342323601526,10.22307141584298 A 113.00145272564053 113.00145272564053 0 0 1 24.018736134675446,6.953439040707552 Z M 61.219072050959205,10.523629388491969 L 61.14868881574588,9.5261093635296 A 112.00145272564053 112.00145272564053 0 0 0 78.88775373836513,6.833761294146634 L 78.20145667103675,3.9133167500101655 L 85.81650718590495,5.719142227736493 L 79.80281649480297,10.72768735299526 L 79.11651942747459,7.807242808858791 A 113.00145272564053 113.00145272564053 0 0 1 61.219072050959205,10.523629388491969"/><text text-anchor="middle" pointer-events="none" font-size="8px" fill="#000000" x="51.52253359701925" y="13.290365070321272" transform="rotate(180 51.52253359701925 10.290365070321272)" font-family="sans-serif">trek</text></g><g class="relationship" transform="translate(85.77062425813202 176.6374290301331) rotate(516.8094830328469)"><path class="outline" fill="#A5ABB6" stroke="none" d="M 25 0.5 L 44.4492046925769 0.5 L 44.4492046925769 -0.5 L 25 -0.5 Z M 63.7851421925769 0.5 L 83.2343468851538 0.5 L 83.2343468851538 3.5 L 90.2343468851538 0 L 83.2343468851538 -3.5 L 83.2343468851538 -0.5 L 63.7851421925769 -0.5 Z"/><text text-anchor="middle" pointer-events="none" font-size="8px" fill="#000000" x="54.1171734425769" y="3" transform="rotate(180 54.1171734425769 0)" font-family="sans-serif">trek</text></g><g class="relationship" transform="translate(-20.152848248058973 222.01553690472562) rotate(240.3373687631356)"><path class="outline" fill="#A5ABB6" stroke="none" d="M 21.40063509461097,-12.933012701892217 L 21.90063509461097,-12.06698729810778 A 66.84013477336295 66.84013477336295 0 0 1 42.53021730210308,-19.786664612407108 L 42.33885794559432,-20.76818465635759 A 67.84013477336295 67.84013477336295 0 0 0 21.40063509461097,-12.933012701892217 Z M 64.4060698518785,-21.410744081159322 L 64.27214666023187,-20.419752366391137 A 66.84013477336295 66.84013477336295 0 0 1 85.31596261849562,-13.913533048899078 L 83.9696789714514,-11.232577931463998 L 91.79590516701818,-11.2190303920351 L 87.11100748122124,-17.48813987214585 L 85.76472383417702,-14.80718475471077 A 67.84013477336295 67.84013477336295 0 0 0 64.4060698518785,-21.410744081159322"/><text text-anchor="middle" pointer-events="none" font-size="8px" fill="#000000" x="53.36070380445313" y="-18.493337508845144" transform="rotate(180 53.36070380445313 -21.493337508845144)" font-family="sans-serif">road</text></g><g class="relationship" transform="translate(-76.63843830969041 122.83550847240552) rotate(330.9193028122939)"><path class="outline" fill="#A5ABB6" stroke="none" d="M 21.40063509461097,12.933012701892217 L 21.90063509461097,12.06698729810778 A 66.0934690310044 66.0934690310044 0 0 0 42.16947087575063,19.674890233488327 L 41.97614014395974,20.656023877873835 A 67.0934690310044 67.0934690310044 0 0 1 21.40063509461097,12.933012701892217 Z M 64.04284249986023,21.302464008144412 L 63.90727829337175,20.311695444897097 A 66.0934690310044 66.0934690310044 0 0 0 84.58671714599565,13.903364949552081 L 83.24137934013868,11.221935072018095 L 91.06760982788445,11.211148382141468 L 86.38050088713828,17.478604786264064 L 85.03516308128131,14.797174908730078 A 67.0934690310044 67.0934690310044 0 0 1 64.04284249986023,21.302464008144412"/><text text-anchor="middle" pointer-events="none" font-size="8px" fill="#000000" x="52.99736230603601" y="24.39327669040202" font-family="sans-serif">road</text></g><g class="relationship" transform="translate(22.47714398379822 67.71221131525937) rotate(302.3626033884798)"><path class="outline" fill="#A5ABB6" stroke="none" d="M 25 0.5 L 46.96442747509135 0.5 L 46.96442747509135 -0.5 L 25 -0.5 Z M 66.30036497509136 0.5 L 88.2647924501827 0.5 L 88.2647924501827 3.5 L 95.2647924501827 0 L 88.2647924501827 -3.5 L 88.2647924501827 -0.5 L 66.30036497509136 -0.5 Z"/><text text-anchor="middle" pointer-events="none" font-size="8px" fill="#000000" x="56.63239622509135" y="3" font-family="sans-serif">trek</text></g><g class="relationship" transform="translate(65.6296769468124 287.14285523311446) rotate(217.2062872449098)"><path class="outline" fill="#A5ABB6" stroke="none" d="M 24.018736134675446,-6.953439040707552 L 24.277555179777966,-5.987513214418485 A 107.11068123837455 107.11068123837455 0 0 1 40.7026651291851,-9.039787413434908 L 40.59719316169898,-10.034209689972698 A 108.11068123837455 108.11068123837455 0 0 0 24.018736134675446,-6.953439040707552 Z M 59.99442092305003,-10.34122383453385 L 59.92047280420275,-9.343961744750544 A 107.11068123837455 107.11068123837455 0 0 1 76.43395223548063,-6.813030748287606 L 75.74959155730714,-3.8921318349100953 L 83.36344314639041,-5.7030056514457215 L 77.34643313971195,-10.707562632790953 L 76.66207246153846,-7.786663719413443 A 108.11068123837455 108.11068123837455 0 0 0 59.99442092305003,-10.34122383453385"/><text text-anchor="middle" pointer-events="none" font-size="8px" fill="#000000" x="50.29681957755044" y="-7.123744545429474" transform="rotate(180 50.29681957755044 -10.123744545429474)" font-family="sans-serif">trek</text></g><g class="relationship" transform="translate(65.6296769468124 287.14285523311446) rotate(217.2062872449098)"><path class="outline" fill="#A5ABB6" stroke="none" d="M 24.018736134675446,6.953439040707552 L 24.277555179777966,5.987513214418485 A 107.11068123837455 107.11068123837455 0 0 0 39.379325778213094,8.89110485575597 L 39.261498933177215,9.884139011557721 A 108.11068123837455 108.11068123837455 0 0 1 24.018736134675446,6.953439040707552 Z M 61.33419545809788,10.233499761719074 L 61.24785471976379,9.237234095892973 A 107.11068123837455 107.11068123837455 0 0 0 76.43395223548063,6.813030748287606 L 75.74959155730714,3.8921318349100953 L 83.36344314639041,5.7030056514457215 L 77.34643313971195,10.707562632790953 L 76.66207246153846,7.786663719413443 A 108.11068123837455 108.11068123837455 0 0 1 61.33419545809788,10.233499761719074"/><text text-anchor="middle" pointer-events="none" font-size="8px" fill="#000000" x="50.29681957755047" y="13.123744545429474" transform="rotate(180 50.29681957755047 10.123744545429474)" font-family="sans-serif">road</text></g><g class="relationship" transform="translate(-20.152848248058973 222.01553690472562) rotate(240.3373687631356)"><path class="outline" fill="#A5ABB6" stroke="none" d="M 25 0.5 L 30.33617703115526 0.5 L 30.33617703115526 -0.5 L 25 -0.5 Z M 76.80102078115526 0.5 L 82.13719781231052 0.5 L 82.13719781231052 3.5 L 89.13719781231052 0 L 82.13719781231052 -3.5 L 82.13719781231052 -0.5 L 76.80102078115526 -0.5 Z"/><text text-anchor="middle" pointer-events="none" font-size="8px" fill="#000000" x="53.56859890615526" y="3" transform="rotate(180 53.56859890615526 0)" font-family="sans-serif">twowheeler</text></g><g class="relationship" transform="translate(-20.152848248058973 222.01553690472562) rotate(240.3373687631356)"><path class="outline" fill="#A5ABB6" stroke="none" d="M 21.40063509461097,12.933012701892217 L 21.90063509461097,12.06698729810778 A 66.84013477336295 66.84013477336295 0 0 0 43.83607204048999,20.02781736671909 L 43.66424966939897,21.01294531414149 A 67.84013477336295 67.84013477336295 0 0 1 21.40063509461097,12.933012701892217 Z M 63.06868180911393,21.57796915164535 L 62.95447243506558,20.584512449579535 A 66.84013477336295 66.84013477336295 0 0 0 85.31596261849562,13.913533048899078 L 83.9696789714514,11.232577931463998 L 91.79590516701818,11.2190303920351 L 87.11100748122124,17.48813987214585 L 85.76472383417702,14.80718475471077 A 67.84013477336295 67.84013477336295 0 0 1 63.06868180911393,21.57796915164535"/><text text-anchor="middle" pointer-events="none" font-size="8px" fill="#000000" x="53.36070380445313" y="24.493337508845144" transform="rotate(180 53.36070380445313 21.493337508845144)" font-family="sans-serif">trek</text></g><g class="relationship" transform="translate(85.77062425813202 176.6374290301331) rotate(239.8402942496494)"><path class="outline" fill="#A5ABB6" stroke="none" d="M 25 0.5 L 49.821648845819155 0.5 L 49.821648845819155 -0.5 L 25 -0.5 Z M 69.15758634581915 0.5 L 93.97923519163831 0.5 L 93.97923519163831 3.5 L 100.97923519163831 0 L 93.97923519163831 -3.5 L 93.97923519163831 -0.5 L 69.15758634581915 -0.5 Z"/><text text-anchor="middle" pointer-events="none" font-size="8px" fill="#000000" x="59.489617595819155" y="3" transform="rotate(180 59.489617595819155 0)" font-family="sans-serif">trek</text></g><g class="relationship" transform="translate(-76.63843830969041 122.83550847240552) rotate(330.9193028122939)"><path class="outline" fill="#A5ABB6" stroke="none" d="M 25 0.5 L 43.53846065366717 0.5 L 43.53846065366717 -0.5 L 25 -0.5 Z M 62.87439815366717 0.5 L 81.41285880733435 0.5 L 81.41285880733435 3.5 L 88.41285880733435 0 L 81.41285880733435 -3.5 L 81.41285880733435 -0.5 L 62.87439815366717 -0.5 Z"/><text text-anchor="middle" pointer-events="none" font-size="8px" fill="#000000" x="53.20642940366717" y="3" font-family="sans-serif">trek</text></g><g class="relationship" transform="translate(-76.63843830969041 122.83550847240552) rotate(330.9193028122939)"><path class="outline" fill="#A5ABB6" stroke="none" d="M 21.40063509461097,-12.933012701892217 L 21.90063509461097,-12.06698729810778 A 66.0934690310044 66.0934690310044 0 0 1 30.545183921399712,-16.252137846882015 L 30.175976705520842,-17.18148494659394 A 67.0934690310044 67.0934690310044 0 0 0 21.40063509461097,-12.933012701892217 Z M 76.02616726973935,-18.5246581440762 L 75.71199663638178,-17.575291611521088 A 66.0934690310044 66.0934690310044 0 0 1 84.58671714599565,-13.903364949552081 L 83.24137934013868,-11.221935072018095 L 91.06760982788445,-11.211148382141468 L 86.38050088713828,-17.478604786264064 L 85.03516308128131,-14.797174908730078 A 67.0934690310044 67.0934690310044 0 0 0 76.02616726973935,-18.5246581440762"/><text text-anchor="middle" pointer-events="none" font-size="8px" fill="#000000" x="52.99736230603602" y="-18.39327669040202" font-family="sans-serif">twowheeler</text></g><g class="relationship" transform="translate(172.23795350326537 42.33385272406187) rotate(221.74876103508126)"><path class="outline" fill="#A5ABB6" stroke="none" d="M 24.018736134675446,-6.953439040707552 L 24.277555179777966,-5.987513214418485 A 120.55915112695645 120.55915112695645 0 0 1 44.067749858516216,-9.554050465430976 L 43.97308421441017,-10.54955958936003 A 121.55915112695645 121.55915112695645 0 0 0 24.018736134675446,-6.953439040707552 Z M 63.36608501166043,-10.83943055464205 L 63.30121514883457,-9.84153682237546 A 120.55915112695645 120.55915112695645 0 0 1 83.18916444642792,-6.868076528109593 L 82.49966212409268,-3.948387067311697 L 90.11669024201221,-5.745852686127012 L 84.10850087620824,-10.760995809173455 L 83.418998553873,-7.841306348375558 A 121.55915112695645 121.55915112695645 0 0 0 63.36608501166043,-10.83943055464205"/><text text-anchor="middle" pointer-events="none" font-size="8px" fill="#000000" x="53.67126691340117" y="-7.581945502558185" transform="rotate(180 53.67126691340117 -10.581945502558185)" font-family="sans-serif">trek</text></g></g><g class="layer nodes"><g class="node" transform="translate(65.6296769468124,287.14285523311446)"><circle class="outline" cx="0" cy="0" r="25" fill="#8DCC93" stroke="#5db665" stroke-width="2px"/><text text-anchor="middle" pointer-events="none" font-family="sans-serif" dy="1.5625" font-size="25" fill="#604A0E"/><text text-anchor="middle" pointer-events="none" y="5" font-size="10px" fill="#604A0E" font-family="sans-serif"> Darjeeling</text></g><g class="node" transform="translate(85.77062425813202,176.6374290301331)"><circle class="outline" cx="0" cy="0" r="25" fill="#8DCC93" stroke="#5db665" stroke-width="2px"/><text text-anchor="middle" pointer-events="none" font-family="sans-serif" dy="1.5625" font-size="25" fill="#604A0E"/><text text-anchor="middle" pointer-events="none" y="5" font-size="10px" fill="#604A0E" font-family="sans-serif"> Rimbik</text></g><g class="node" transform="translate(206.17757752020316,147.1284394615855)"><circle class="outline" cx="0" cy="0" r="25" fill="#F16667" stroke="#eb2728" stroke-width="2px"/><text text-anchor="middle" pointer-events="none" font-family="sans-serif" dy="1.5625" font-size="25" fill="#FFFFFF"/><text text-anchor="middle" pointer-events="none" y="5" font-size="10px" fill="#FFFFFF" font-family="sans-serif"> Sirikhola</text></g><g class="node" transform="translate(275.1487389803202,49.45871165824826)"><circle class="outline" cx="0" cy="0" r="25" fill="#F16667" stroke="#eb2728" stroke-width="2px"/><text text-anchor="middle" pointer-events="none" font-family="sans-serif" dy="1.5625" font-size="25" fill="#FFFFFF"/><text text-anchor="middle" pointer-events="none" y="5" font-size="10px" fill="#FFFFFF" font-family="sans-serif"> Rammam</text></g><g class="node" transform="translate(204.31927640832964,-53.02045502901257)"><circle class="outline" cx="0" cy="0" r="25" fill="#D9C8AE" stroke="#c0a378" stroke-width="2px"/><text text-anchor="middle" pointer-events="none" font-family="sans-serif" dy="1.5625" font-size="25" fill="#604A0E"/><text text-anchor="middle" pointer-events="none" y="5" font-size="10px" fill="#604A0E" font-family="sans-serif"> Sabargr…</text></g><g class="node" transform="translate(86.85195209322744,-33.872750091238636)"><circle class="outline" cx="0" cy="0" r="25" fill="#D9C8AE" stroke="#c0a378" stroke-width="2px"/><text text-anchor="middle" pointer-events="none" font-family="sans-serif" dy="1.5625" font-size="25" fill="#604A0E"/><text text-anchor="middle" pointer-events="none" y="5" font-size="10px" fill="#604A0E" font-family="sans-serif"> Sandak…</text></g><g class="node" transform="translate(172.23795350326537,42.33385272406187)"><circle class="outline" cx="0" cy="0" r="25" fill="#F16667" stroke="#eb2728" stroke-width="2px"/><text text-anchor="middle" pointer-events="none" font-family="sans-serif" dy="1.5625" font-size="25" fill="#FFFFFF"/><text text-anchor="middle" pointer-events="none" y="5" font-size="10px" fill="#FFFFFF" font-family="sans-serif"> Gurdum</text></g><g class="node" transform="translate(-20.152848248058973,222.01553690472562)"><circle class="outline" cx="0" cy="0" r="25" fill="#F16667" stroke="#eb2728" stroke-width="2px"/><text text-anchor="middle" pointer-events="none" font-family="sans-serif" dy="1.5625" font-size="25" fill="#FFFFFF"/><text text-anchor="middle" pointer-events="none" y="5" font-size="10px" fill="#FFFFFF" font-family="sans-serif"> Tumbling</text></g><g class="node" transform="translate(-76.63843830969041,122.83550847240552)"><circle class="outline" cx="0" cy="0" r="25" fill="#F16667" stroke="#eb2728" stroke-width="2px"/><text text-anchor="middle" pointer-events="none" font-family="sans-serif" dy="1.5625" font-size="25" fill="#FFFFFF"/><text text-anchor="middle" pointer-events="none" y="5" font-size="10px" fill="#FFFFFF" font-family="sans-serif"> Gairibus</text></g><g class="node" transform="translate(22.47714398379822,67.71221131525937)"><circle class="outline" cx="0" cy="0" r="25" fill="#F16667" stroke="#eb2728" stroke-width="2px"/><text text-anchor="middle" pointer-events="none" font-family="sans-serif" dy="1.5625" font-size="25" fill="#FFFFFF"/><text text-anchor="middle" pointer-events="none" y="5" font-size="10px" fill="#FFFFFF" font-family="sans-serif"> BhikeBh…</text></g></g></svg>