<svg xmlns="http://www.w3.org/2000/svg" width="407.42254638671875" height="313.5420837402344" viewBox="-105.00430297851562 -44.772525787353516 407.42254638671875 313.5420837402344"><title>Neo4j Graph Visualization</title><desc>Created using Neo4j (http://www.neo4j.com/)</desc><g class="layer relationships"><g class="relationship" transform="translate(213.80432491362322 239.76956753381518) rotate(303.07705926925723)"><path class="outline" fill="#A5ABB6" stroke="none" d="M 24.018736134675446,-6.953439040707552 L 24.277555179777966,-5.987513214418485 A 110.15761671370308 110.15761671370308 0 0 1 41.463728325292294,-9.157379957201428 L 41.36092366810251,-10.15208152172221 A 111.15761671370308 111.15761671370308 0 0 0 24.018736134675446,-6.953439040707552 Z M 60.7571625908782,-10.455042487331596 L 60.68547413193063,-9.457615414882838 A 110.15761671370308 110.15761671370308 0 0 1 77.96226324083553,-6.826045419419204 L 77.27668689186983,-3.9054316021302977 L 84.89129153933725,-5.713136241380747 L 78.87636503945645,-10.720197175804412 L 78.19078869049075,-7.799583358515505 A 111.15761671370308 111.15761671370308 0 0 0 60.7571625908782,-10.455042487331596"/><text text-anchor="middle" pointer-events="none" font-size="8px" fill="#000000" x="51.060230454140566" y="-7.2275468236666" font-family="sans-serif">trek</text></g><g class="relationship" transform="translate(273.4182580344095 148.2418936750522) rotate(266.88092029828493)"><path class="outline" fill="#A5ABB6" stroke="none" d="M 21.40063509461097,-12.933012701892217 L 21.90063509461097,-12.06698729810778 A 67.53973521970096 67.53973521970096 0 0 1 42.86839974420002,-19.891183295749812 L 42.67885054151782,-20.873054519364473 A 68.53973521970096 68.53973521970096 0 0 0 21.40063509461097,-12.933012701892217 Z M 64.74650823306166,-21.512017830785467 L 64.6140886154558,-20.52082408339139 A 67.53973521970096 67.53973521970096 0 0 1 85.99944052151353,-13.922951603254578 L 84.65228076207438,-11.242436618676455 L 92.47850211210235,-11.226331328659581 L 87.79565353409907,-17.496971582692076 L 86.44849377465992,-14.816456598113952 A 68.53973521970096 68.53973521970096 0 0 0 64.74650823306166,-21.512017830785467"/><text text-anchor="middle" pointer-events="none" font-size="8px" fill="#000000" x="53.70125511115762" y="-18.587092498655764" transform="rotate(180 53.70125511115762 -21.587092498655764)" font-family="sans-serif">road</text></g><g class="relationship" transform="translate(267.1709602844487 33.59585455317743) rotate(535.1972491602435)"><path class="outline" fill="#A5ABB6" stroke="none" d="M 21.40063509461097,12.933012701892217 L 21.90063509461097,12.06698729810778 A 68.77032285533254 68.77032285533254 0 0 0 43.46365729069193,20.074554767655812 L 43.277208562531115,21.057019460032706 A 69.77032285533254 69.77032285533254 0 0 1 21.40063509461097,12.933012701892217 Z M 65.3455808742562,21.689749371327792 L 65.21572932733469,20.698215924709828 A 68.77032285533254 68.77032285533254 0 0 0 87.20212735176506,13.939268897297259 L 85.85344977345017,11.259517268927446 L 93.67966074768043,11.238979819290803 L 89.00036412285158,17.51227106845701 L 87.65168654453669,14.832519440087198 A 69.77032285533254 69.77032285533254 0 0 1 65.3455808742562,21.689749371327792"/><text text-anchor="middle" pointer-events="none" font-size="8px" fill="#000000" x="54.30053903150711" y="24.752009379721514" transform="rotate(180 54.30053903150711 21.752009379721514)" font-family="sans-serif">road</text></g><g class="relationship" transform="translate(151.56736881137442 43.30894878265741) rotate(498.12978358152594)"><path class="outline" fill="#A5ABB6" stroke="none" d="M 25 0.5 L 56.56948338651236 0.5 L 56.56948338651236 -0.5 L 25 -0.5 Z M 75.90542088651236 0.5 L 107.47490427302472 0.5 L 107.47490427302472 3.5 L 114.47490427302472 0 L 107.47490427302472 -3.5 L 107.47490427302472 -0.5 L 75.90542088651236 -0.5 Z"/><text text-anchor="middle" pointer-events="none" font-size="8px" fill="#000000" x="66.23745213651236" y="3" transform="rotate(180 66.23745213651236 0)" font-family="sans-serif">trek</text></g><g class="relationship" transform="translate(213.80432491362322 239.76956753381518) rotate(303.07705926925723)"><path class="outline" fill="#A5ABB6" stroke="none" d="M 24.018736134675446,6.953439040707552 L 24.277555179777966,5.987513214418485 A 110.15761671370308 110.15761671370308 0 0 0 40.139799549268034,9.012454888529476 L 40.0249763969844,10.00584083754407 A 111.15761671370308 111.15761671370308 0 0 1 24.018736134675446,6.953439040707552 Z M 62.09702547579363,10.350596814644447 L 62.013283295971796,9.35410935997244 A 110.15761671370308 110.15761671370308 0 0 0 77.96226324083553,6.826045419419204 L 77.27668689186983,3.9054316021302977 L 84.89129153933725,5.713136241380747 L 78.87636503945645,10.720197175804412 L 78.19078869049075,7.799583358515505 A 111.15761671370308 111.15761671370308 0 0 1 62.09702547579363,10.350596814644447"/><text text-anchor="middle" pointer-events="none" font-size="8px" fill="#000000" x="51.060230454140594" y="13.2275468236666" font-family="sans-serif">road</text></g><g class="relationship" transform="translate(273.4182580344095 148.2418936750522) rotate(266.88092029828493)"><path class="outline" fill="#A5ABB6" stroke="none" d="M 25 0.5 L 30.67564161679335 0.5 L 30.67564161679335 -0.5 L 25 -0.5 Z M 77.14048536679334 0.5 L 82.8161269835867 0.5 L 82.8161269835867 3.5 L 89.8161269835867 0 L 82.8161269835867 -3.5 L 82.8161269835867 -0.5 L 77.14048536679334 -0.5 Z"/><text text-anchor="middle" pointer-events="none" font-size="8px" fill="#000000" x="53.90806349179335" y="3" transform="rotate(180 53.90806349179335 0)" font-family="sans-serif">twowheeler</text></g><g class="relationship" transform="translate(273.4182580344095 148.2418936750522) rotate(266.88092029828493)"><path class="outline" fill="#A5ABB6" stroke="none" d="M 21.40063509461097,12.933012701892217 L 21.90063509461097,12.06698729810778 A 67.53973521970096 67.53973521970096 0 0 0 44.17477344613272,20.130079650163026 L 44.0045665416944,21.115487996830296 A 68.53973521970096 68.53973521970096 0 0 1 21.40063509461097,12.933012701892217 Z M 63.40898583369822,21.6773379303541 L 63.296080770606984,20.683732150012446 A 67.53973521970096 67.53973521970096 0 0 0 85.99944052151353,13.922951603254578 L 84.65228076207438,11.242436618676455 L 92.47850211210235,11.226331328659581 L 87.79565353409907,17.496971582692076 L 86.44849377465992,14.816456598113952 A 68.53973521970096 68.53973521970096 0 0 1 63.40898583369822,21.6773379303541"/><text text-anchor="middle" pointer-events="none" font-size="8px" fill="#000000" x="53.70125511115763" y="24.587092498655778" transform="rotate(180 53.70125511115763 21.587092498655778)" font-family="sans-serif">trek</text></g><g class="relationship" transform="translate(267.1709602844487 33.59585455317743) rotate(535.1972491602435)"><path class="outline" fill="#A5ABB6" stroke="none" d="M 25 0.5 L 44.83749340871444 0.5 L 44.83749340871444 -0.5 L 25 -0.5 Z M 64.17343090871444 0.5 L 84.01092431742887 0.5 L 84.01092431742887 3.5 L 91.01092431742887 0 L 84.01092431742887 -3.5 L 84.01092431742887 -0.5 L 64.17343090871444 -0.5 Z"/><text text-anchor="middle" pointer-events="none" font-size="8px" fill="#000000" x="54.50546215871444" y="3" transform="rotate(180 54.50546215871444 0)" font-family="sans-serif">trek</text></g><g class="relationship" transform="translate(267.1709602844487 33.59585455317743) rotate(535.1972491602435)"><path class="outline" fill="#A5ABB6" stroke="none" d="M 21.40063509461097,-12.933012701892217 L 21.90063509461097,-12.06698729810778 A 68.77032285533254 68.77032285533254 0 0 1 31.799233676255206,-16.773392585558327 L 31.443170743447215,-17.70785456331889 A 69.77032285533254 69.77032285533254 0 0 0 21.40063509461097,-12.933012701892217 Z M 77.35207080555149,-19.024124465495433 L 77.05013334244192,-18.070796731517774 A 68.77032285533254 68.77032285533254 0 0 1 87.20212735176506,-13.939268897297259 L 85.85344977345017,-11.259517268927446 L 93.67966074768043,-11.238979819290803 L 89.00036412285158,-17.51227106845701 L 87.65168654453669,-14.832519440087198 A 69.77032285533254 69.77032285533254 0 0 0 77.35207080555149,-19.024124465495433"/><text text-anchor="middle" pointer-events="none" font-size="8px" fill="#000000" x="54.30053903150712" y="-18.752009379721514" transform="rotate(180 54.30053903150712 -21.752009379721514)" font-family="sans-serif">twowheeler</text></g><g class="relationship" transform="translate(213.80432491362322 239.76956753381518) rotate(241.02676908135186)"><path class="outline" fill="#A5ABB6" stroke="none" d="M 21.40063509461097,12.933012701892217 L 21.90063509461097,12.06698729810778 A 65.8956021067639 65.8956021067639 0 0 0 43.37903676134174,19.88949961271051 L 43.204982666380005,20.874235705289152 A 66.8956021067639 66.8956021067639 0 0 1 21.40063509461097,12.933012701892217 Z M 62.60940969010078,21.44359947884891 L 62.493393490265674,20.45035215749546 A 65.8956021067639 65.8956021067639 0 0 0 84.39350398716311,13.900650080819357 L 83.04841872071538,11.21909351308016 L 90.8746501896292,11.209043887064501 L 86.18695100909343,17.476058837804953 L 84.8418657426457,14.794502270065756 A 66.8956021067639 66.8956021067639 0 0 1 62.60940969010078,21.44359947884891"/><text text-anchor="middle" pointer-events="none" font-size="8px" fill="#000000" x="52.901097653535686" y="24.366760772615777" transform="rotate(180 52.901097653535686 21.366760772615777)" font-family="sans-serif">trek</text></g><g class="relationship" transform="translate(158.95998820615947 140.71865454310256) rotate(228.42296093480064)"><path class="outline" fill="#A5ABB6" stroke="none" d="M 24.018736134675446,-6.953439040707552 L 24.277555179777966,-5.987513214418485 A 175.89032570133 175.89032570133 0 0 1 44.585719969578626,-10.16399560833247 L 44.44236017278226,-11.153666244788127 A 176.89032570133 176.89032570133 0 0 0 24.018736134675446,-6.953439040707552 Z M 90.90088130991998,-11.717939940551418 L 90.78160084669682,-10.72507934052075 A 175.89032570133 175.89032570133 0 0 1 111.18521290592248,-7.0430721089968715 L 110.47936581478183,-4.127290929976696 L 118.106343505493,-5.882059092838724 L 112.12634236077668,-10.93078034769044 L 111.42049526963602,-8.014999168670263 A 176.89032570133 176.89032570133 0 0 0 90.90088130991998,-11.717939940551418"/><text text-anchor="middle" pointer-events="none" font-size="8px" fill="#000000" x="67.65908609912938" y="-9.46782167687391" transform="rotate(180 67.65908609912938 -12.46782167687391)" font-family="sans-serif">twowheeler</text></g><g class="relationship" transform="translate(64.4565773207502 34.19094619127121) rotate(517.4598824132343)"><path class="outline" fill="#A5ABB6" stroke="none" d="M 24.018736134675446,-6.953439040707552 L 24.277555179777966,-5.987513214418485 A 97.47587101242894 97.47587101242894 0 0 1 25.046155187670923,-6.190103899334829 L 24.795221170933985,-7.158108093150261 A 98.47587101242894 98.47587101242894 0 0 0 24.018736134675446,-6.953439040707552 Z M 71.05444597428819,-7.92243143096195 L 70.83562811853326,-6.946665708053615 A 97.47587101242894 97.47587101242894 0 0 1 71.61050141873889,-6.769577237575252 L 70.93019969421768,-3.8477302936691444 L 78.54152790860668,-5.669181037676774 L 72.51757038476718,-10.665373162783396 L 71.83726866024597,-7.743526218877289 A 98.47587101242894 98.47587101242894 0 0 0 71.05444597428819,-7.92243143096195"/><text text-anchor="middle" pointer-events="none" font-size="8px" fill="#000000" x="47.88757041092205" y="-6.795552164385654" transform="rotate(180 47.88757041092205 -9.795552164385654)" font-family="sans-serif">twowheeler</text></g><g class="relationship" transform="translate(-30.57402838484971 73.63188972247914) rotate(398.72437234079354)"><path class="outline" fill="#A5ABB6" stroke="none" d="M 24.018736134675446,6.953439040707552 L 24.277555179777966,5.987513214418485 A 92.35493796220825 92.35493796220825 0 0 0 26.374704972263963,6.523184067045506 L 26.138593427580577,7.494910025568387 A 93.35493796220825 93.35493796220825 0 0 1 24.018736134675446,6.953439040707552 Z M 67.14207062986401,8.188538941836754 L 66.93896087466412,7.209382964812335 A 92.35493796220825 92.35493796220825 0 0 0 69.05302875837086,6.744950518101412 L 68.37502743482757,3.82256891993981 L 75.98491937467182,5.650011029527355 L 69.95703052309524,10.641459315650215 L 69.27902919955196,7.719077717488613 A 93.35493796220825 93.35493796220825 0 0 1 67.14207062986401,8.188538941836754"/><text text-anchor="middle" pointer-events="none" font-size="8px" fill="#000000" x="46.61023068110319" y="12.621148455093604" font-family="sans-serif">twowhe…</text></g><g class="relationship" transform="translate(213.80432491362322 239.76956753381518) rotate(241.02676908135186)"><path class="outline" fill="#A5ABB6" stroke="none" d="M 25 0.5 L 42.1046180853946 0.5 L 42.1046180853946 -0.5 L 25 -0.5 Z M 64.1163368353946 0.5 L 81.2209549207892 0.5 L 81.2209549207892 3.5 L 88.2209549207892 0 L 81.2209549207892 -3.5 L 81.2209549207892 -0.5 L 64.1163368353946 -0.5 Z"/><text text-anchor="middle" pointer-events="none" font-size="8px" fill="#000000" x="53.1104774603946" y="3" transform="rotate(180 53.1104774603946 0)" font-family="sans-serif">road</text></g><g class="relationship" transform="translate(213.80432491362322 239.76956753381518) rotate(241.02676908135186)"><path class="outline" fill="#A5ABB6" stroke="none" d="M 21.40063509461097,-12.933012701892217 L 21.90063509461097,-12.06698729810778 A 65.8956021067639 65.8956021067639 0 0 1 23.59391761167483,-13.011664164406831 L 23.119614053666822,-13.892025530472466 A 66.8956021067639 66.8956021067639 0 0 0 21.40063509461097,-12.933012701892217 Z M 83.06961394181981,-15.65107557196562 L 82.64774498623756,-14.744418754688027 A 65.8956021067639 65.8956021067639 0 0 1 84.39350398716311,-13.900650080819357 L 83.04841872071538,-11.21909351308016 L 90.8746501896292,-11.209043887064501 L 86.18695100909343,-17.476058837804953 L 84.8418657426457,-14.794502270065756 A 66.8956021067639 66.8956021067639 0 0 0 83.06961394181981,-15.65107557196562"/><text text-anchor="middle" pointer-events="none" font-size="8px" fill="#000000" x="52.90109765353567" y="-18.366760772615777" transform="rotate(180 52.90109765353567 -21.366760772615777)" font-family="sans-serif">PublicTransport</text></g><g class="relationship" transform="translate(158.95998820615947 140.71865454310256) rotate(228.42296093480064)"><path class="outline" fill="#A5ABB6" stroke="none" d="M 24.018736134675446,6.953439040707552 L 24.277555179777966,5.987513214418485 A 175.89032570133 175.89032570133 0 0 0 58.033339556185474,11.586719458676669 L 57.966434331481054,12.584478793840816 A 176.89032570133 176.89032570133 0 0 1 24.018736134675446,6.953439040707552 Z M 77.34604522318403,12.819858749824277 L 77.3033932360123,11.820768759888296 A 175.89032570133 175.89032570133 0 0 0 111.18521290592248,7.0430721089968715 L 110.47936581478183,4.127290929976696 L 118.106343505493,5.882059092838724 L 112.12634236077668,10.93078034769044 L 111.42049526963602,8.014999168670263 A 176.89032570133 176.89032570133 0 0 1 77.34604522318403,12.819858749824277"/><text text-anchor="middle" pointer-events="none" font-size="8px" fill="#000000" x="67.65908609912942" y="15.46782167687391" transform="rotate(180 67.65908609912942 12.46782167687391)" font-family="sans-serif">trek</text></g><g class="relationship" transform="translate(64.4565773207502 34.19094619127121) rotate(517.4598824132343)"><path class="outline" fill="#A5ABB6" stroke="none" d="M 24.018736134675446,6.953439040707552 L 24.277555179777966,5.987513214418485 A 97.47587101242894 97.47587101242894 0 0 0 38.30194666868745,8.662855617108079 L 38.18700314214399,9.656227644953518 A 98.47587101242894 98.47587101242894 0 0 1 24.018736134675446,6.953439040707552 Z M 57.58744543188736,9.976773673750017 L 57.50538189375307,8.98014657412405 A 97.47587101242894 97.47587101242894 0 0 0 71.61050141873889,6.769577237575252 L 70.93019969421768,3.8477302936691444 L 78.54152790860668,5.669181037676774 L 72.51757038476718,10.665373162783396 L 71.83726866024597,7.743526218877289 A 98.47587101242894 98.47587101242894 0 0 1 57.58744543188736,9.976773673750017"/><text text-anchor="middle" pointer-events="none" font-size="8px" fill="#000000" x="47.887570410922045" y="12.795552164385654" transform="rotate(180 47.887570410922045 9.795552164385654)" font-family="sans-serif">trek</text></g><g class="relationship" transform="translate(158.95998820615947 140.71865454310256) rotate(265.66002693076314)"><path class="outline" fill="#A5ABB6" stroke="none" d="M 25 0.5 L 35.676942954937736 0.5 L 35.676942954937736 -0.5 L 25 -0.5 Z M 55.012880454937736 0.5 L 65.68982340987547 0.5 L 65.68982340987547 3.5 L 72.68982340987547 0 L 65.68982340987547 -3.5 L 65.68982340987547 -0.5 L 55.012880454937736 -0.5 Z"/><text text-anchor="middle" pointer-events="none" font-size="8px" fill="#000000" x="45.344911704937736" y="3" transform="rotate(180 45.344911704937736 0)" font-family="sans-serif">trek</text></g><g class="relationship" transform="translate(-30.57402838484971 73.63188972247914) rotate(398.72437234079354)"><path class="outline" fill="#A5ABB6" stroke="none" d="M 24.018736134675446,-6.953439040707552 L 24.277555179777966,-5.987513214418485 A 92.35493796220825 92.35493796220825 0 0 1 37.029975534649935,-8.458794841847109 L 36.90923703657881,-9.451479190007944 A 93.35493796220825 93.35493796220825 0 0 0 24.018736134675446,-6.953439040707552 Z M 56.311412514197706,-9.779693060343803 L 56.22431866937259,-8.783492948823252 A 92.35493796220825 92.35493796220825 0 0 1 69.05302875837086,-6.744950518101412 L 68.37502743482757,-3.82256891993981 L 75.98491937467182,-5.650011029527355 L 69.95703052309524,-10.641459315650215 L 69.27902919955196,-7.719077717488613 A 93.35493796220825 93.35493796220825 0 0 0 56.311412514197706,-9.779693060343803"/><text text-anchor="middle" pointer-events="none" font-size="8px" fill="#000000" x="46.61023068110319" y="-6.6211484550936035" font-family="sans-serif">trek</text></g><g class="relationship" transform="translate(158.95998820615947 140.71865454310256) rotate(363.760590635763)"><path class="outline" fill="#A5ABB6" stroke="none" d="M 25 0.5 L 44.18465686363908 0.5 L 44.18465686363908 -0.5 L 25 -0.5 Z M 63.52059436363908 0.5 L 82.70525122727815 0.5 L 82.70525122727815 3.5 L 89.70525122727815 0 L 82.70525122727815 -3.5 L 82.70525122727815 -0.5 L 63.52059436363908 -0.5 Z"/><text text-anchor="middle" pointer-events="none" font-size="8px" fill="#000000" x="53.85262561363908" y="3" font-family="sans-serif">trek</text></g><g class="relationship" transform="translate(64.4565773207502 34.19094619127121) rotate(203.8442123551946)"><path class="outline" fill="#A5ABB6" stroke="none" d="M 24.018736134675446,-6.953439040707552 L 24.277555179777966,-5.987513214418485 A 138.72958226399973 138.72958226399973 0 0 1 48.63556192947398,-10.233152053848528 L 48.55232192347894,-11.229681582463684 A 139.72958226399973 139.72958226399973 0 0 0 24.018736134675446,-6.953439040707552 Z M 67.94023506264129,-11.499140365427309 L 67.88472196549935,-10.50068240634954 A 138.72958226399973 138.72958226399973 0 0 1 92.35131185467998,-6.93362182826042 L 91.65568735684259,-4.015384936229809 L 99.27646868572431,-5.796870815311606 L 93.27881118512984,-10.8246043509679 L 92.58318668729245,-7.90636745893729 A 139.72958226399973 139.72958226399973 0 0 0 67.94023506264129,-11.499140365427309"/><text text-anchor="middle" pointer-events="none" font-size="8px" fill="#000000" x="58.248547345147216" y="-8.201164088071295" transform="rotate(180 58.248547345147216 -11.201164088071295)" font-family="sans-serif">trek</text></g><g class="relationship" transform="translate(-48.589442260542604 -15.772525840179215) rotate(438.60719206210933)"><path class="outline" fill="#A5ABB6" stroke="none" d="M 21.40063509461097,12.933012701892217 L 21.90063509461097,12.06698729810778 A 43.025250385897756 43.025250385897756 0 0 0 32.431642766825284,16.406222740495593 L 32.176406192436076,17.373101373569078 A 44.025250385897756 44.025250385897756 0 0 1 21.40063509461097,12.933012701892217 Z M 51.56148812416221,18.070667232460842 L 51.376407340630486,17.08794392268983 A 43.025250385897756 43.025250385897756 0 0 0 62.19206523219962,13.516861287234734 L 60.88268494205296,10.81769044125713 L 68.70836058783847,10.911502417888805 L 63.93790561906182,17.115755748538206 L 62.62852532891517,14.416584902560603 A 44.025250385897756 44.025250385897756 0 0 1 51.56148812416221,18.070667232460842"/><text text-anchor="middle" pointer-events="none" font-size="8px" fill="#000000" x="41.848031407238125" y="21.303124830792086" font-family="sans-serif">trek</text></g><g class="relationship" transform="translate(64.4565773207502 34.19094619127121) rotate(203.8442123551946)"><path class="outline" fill="#A5ABB6" stroke="none" d="M 24.018736134675446,6.953439040707552 L 24.277555179777966,5.987513214418485 A 138.72958226399973 138.72958226399973 0 0 0 35.24278485165735,8.454298297043096 L 35.06300612004047,9.438005371155214 A 139.72958226399973 139.72958226399973 0 0 1 24.018736134675446,6.953439040707552 Z M 81.47413345832668,10.083040543263706 L 81.32176257218688,9.094717158405814 A 138.72958226399973 138.72958226399973 0 0 0 92.35131185467998,6.93362182826042 L 91.65568735684259,4.015384936229809 L 99.27646868572431,5.796870815311606 L 93.27881118512984,10.8246043509679 L 92.58318668729245,7.90636745893729 A 139.72958226399973 139.72958226399973 0 0 1 81.47413345832668,10.083040543263706"/><text text-anchor="middle" pointer-events="none" font-size="8px" fill="#000000" x="58.24854734514728" y="14.201164088071295" transform="rotate(180 58.24854734514728 11.201164088071295)" font-family="sans-serif">twowheeler</text></g><g class="relationship" transform="translate(-48.589442260542604 -15.772525840179215) rotate(438.60719206210933)"><path class="outline" fill="#A5ABB6" stroke="none" d="M 25 0.5 L 25.987444235492596 0.5 L 25.987444235492596 -0.5 L 25 -0.5 Z M 58.214006735492596 0.5 L 59.20145097098519 0.5 L 59.20145097098519 3.5 L 66.20145097098519 0 L 59.20145097098519 -3.5 L 59.20145097098519 -0.5 L 58.214006735492596 -0.5 Z"/><text text-anchor="middle" pointer-events="none" font-size="8px" fill="#000000" x="42.100725485492596" y="3" font-family="sans-serif">twow…</text></g><g class="relationship" transform="translate(-48.589442260542604 -15.772525840179215) rotate(438.60719206210933)"><path class="outline" fill="#A5ABB6" stroke="none" d="M 21.40063509461097,-12.933012701892217 L 21.90063509461097,-12.06698729810778 A 43.025250385897756 43.025250385897756 0 0 1 31.15831387993439,-16.049068803885994 L 30.873482384528565,-17.00764640597405 A 44.025250385897756 44.025250385897756 0 0 0 21.40063509461097,-12.933012701892217 Z M 52.88730953428054,-17.79980680525921 L 52.672113728153896,-16.823235883602464 A 43.025250385897756 43.025250385897756 0 0 1 62.19206523219962,-13.516861287234734 L 60.88268494205296,-10.81769044125713 L 68.70836058783847,-10.911502417888805 L 63.93790561906182,-17.115755748538206 L 62.62852532891517,-14.416584902560603 A 44.025250385897756 44.025250385897756 0 0 0 52.88730953428054,-17.79980680525921"/><text text-anchor="middle" pointer-events="none" font-size="8px" fill="#000000" x="41.8480314072381" y="-15.303124830792086" font-family="sans-serif">road</text></g><g class="relationship" transform="translate(-48.589442260542604 -15.772525840179215) rotate(462.0354596688752)"><path class="outline" fill="#A5ABB6" stroke="none" d="M 25 0.5 L 52.56974110577883 0.5 L 52.56974110577883 -0.5 L 25 -0.5 Z M 71.90567860577883 0.5 L 99.47541971155766 0.5 L 99.47541971155766 3.5 L 106.47541971155766 0 L 99.47541971155766 -3.5 L 99.47541971155766 -0.5 L 71.90567860577883 -0.5 Z"/><text text-anchor="middle" pointer-events="none" font-size="8px" fill="#000000" x="62.23770985577883" y="3" transform="rotate(180 62.23770985577883 0)" font-family="sans-serif">trek</text></g><g class="relationship" transform="translate(-76.00430429155628 112.81289840437012) rotate(370.79504759045284)"><path class="outline" fill="#A5ABB6" stroke="none" d="M 25 0.5 L 49.80161923687417 0.5 L 49.80161923687417 -0.5 L 25 -0.5 Z M 69.13755673687416 0.5 L 93.93917597374833 0.5 L 93.93917597374833 3.5 L 100.93917597374833 0 L 93.93917597374833 -3.5 L 93.93917597374833 -0.5 L 69.13755673687416 -0.5 Z"/><text text-anchor="middle" pointer-events="none" font-size="8px" fill="#000000" x="59.46958798687417" y="3" font-family="sans-serif">trek</text></g></g><g class="layer nodes"><g class="node" transform="translate(213.80432491362322,239.76956753381518)"><circle class="outline" cx="0" cy="0" r="25" fill="#8DCC93" stroke="#5db665" stroke-width="2px"/><text text-anchor="middle" pointer-events="none" font-family="sans-serif" dy="1.5625" font-size="25" fill="#604A0E"/><text text-anchor="middle" pointer-events="none" y="5" font-size="10px" fill="#604A0E" font-family="sans-serif"> Darjeeling</text></g><g class="node" transform="translate(273.4182580344095,148.2418936750522)"><circle class="outline" cx="0" cy="0" r="25" fill="#F16667" stroke="#eb2728" stroke-width="2px"/><text text-anchor="middle" pointer-events="none" font-family="sans-serif" dy="1.5625" font-size="25" fill="#FFFFFF"/><text text-anchor="middle" pointer-events="none" y="5" font-size="10px" fill="#FFFFFF" font-family="sans-serif"> Tumbling</text></g><g class="node" transform="translate(267.1709602844487,33.59585455317743)"><circle class="outline" cx="0" cy="0" r="25" fill="#F16667" stroke="#eb2728" stroke-width="2px"/><text text-anchor="middle" pointer-events="none" font-family="sans-serif" dy="1.5625" font-size="25" fill="#FFFFFF"/><text text-anchor="middle" pointer-events="none" y="5" font-size="10px" fill="#FFFFFF" font-family="sans-serif"> Gairibus</text></g><g class="node" transform="translate(151.56736881137442,43.30894878265741)"><circle class="outline" cx="0" cy="0" r="25" fill="#F16667" stroke="#eb2728" stroke-width="2px"/><text text-anchor="middle" pointer-events="none" font-family="sans-serif" dy="1.5625" font-size="25" fill="#FFFFFF"/><text text-anchor="middle" pointer-events="none" y="5" font-size="10px" fill="#FFFFFF" font-family="sans-serif"> BhikeBh…</text></g><g class="node" transform="translate(47.70618194189662,136.40085382296056)"><circle class="outline" cx="0" cy="0" r="25" fill="#D9C8AE" stroke="#c0a378" stroke-width="2px"/><text text-anchor="middle" pointer-events="none" font-family="sans-serif" dy="1.5625" font-size="25" fill="#604A0E"/><text text-anchor="middle" pointer-events="none" y="5" font-size="10px" fill="#604A0E" font-family="sans-serif"> Sandak…</text></g><g class="node" transform="translate(158.95998820615947,140.71865454310256)"><circle class="outline" cx="0" cy="0" r="25" fill="#8DCC93" stroke="#5db665" stroke-width="2px"/><text text-anchor="middle" pointer-events="none" font-family="sans-serif" dy="1.5625" font-size="25" fill="#604A0E"/><text text-anchor="middle" pointer-events="none" y="5" font-size="10px" fill="#604A0E" font-family="sans-serif"> Rimbik</text></g><g class="node" transform="translate(64.4565773207502,34.19094619127121)"><circle class="outline" cx="0" cy="0" r="25" fill="#F16667" stroke="#eb2728" stroke-width="2px"/><text text-anchor="middle" pointer-events="none" font-family="sans-serif" dy="1.5625" font-size="25" fill="#FFFFFF"/><text text-anchor="middle" pointer-events="none" y="5" font-size="10px" fill="#FFFFFF" font-family="sans-serif"> Sirikhola</text></g><g class="node" transform="translate(-30.57402838484971,73.63188972247914)"><circle class="outline" cx="0" cy="0" r="25" fill="#F16667" stroke="#eb2728" stroke-width="2px"/><text text-anchor="middle" pointer-events="none" font-family="sans-serif" dy="1.5625" font-size="25" fill="#FFFFFF"/><text text-anchor="middle" pointer-events="none" y="5" font-size="10px" fill="#FFFFFF" font-family="sans-serif"> Gurdum</text></g><g class="node" transform="translate(-48.589442260542604,-15.772525840179215)"><circle class="outline" cx="0" cy="0" r="25" fill="#F16667" stroke="#eb2728" stroke-width="2px"/><text text-anchor="middle" pointer-events="none" font-family="sans-serif" dy="1.5625" font-size="25" fill="#FFFFFF"/><text text-anchor="middle" pointer-events="none" y="5" font-size="10px" fill="#FFFFFF" font-family="sans-serif"> Rammam</text></g><g class="node" transform="translate(-76.00430429155628,112.81289840437012)"><circle class="outline" cx="0" cy="0" r="25" fill="#D9C8AE" stroke="#c0a378" stroke-width="2px"/><text text-anchor="middle" pointer-events="none" font-family="sans-serif" dy="1.5625" font-size="25" fill="#604A0E"/><text text-anchor="middle" pointer-events="none" y="5" font-size="10px" fill="#604A0E" font-family="sans-serif"> Sabargr…</text></g></g></svg>