<svg xmlns="http://www.w3.org/2000/svg" width="480.17620849609375" height="482.9677734375" viewBox="-181.7378387451172 -139.81153869628906 480.17620849609375 482.9677734375"><title>Neo4j Graph Visualization</title><desc>Created using Neo4j (http://www.neo4j.com/)</desc><g class="layer relationships"><g class="relationship" transform="translate(46.72899008121401 92.4773386135326) rotate(406.8657713768968)"><path class="outline" fill="#A5ABB6" stroke="none" d="M 25 0.5 L 42.29102901663585 0.5 L 42.29102901663585 -0.5 L 25 -0.5 Z M 87.85352901663585 0.5 L 105.1445580332717 0.5 L 105.1445580332717 3.5 L 112.1445580332717 0 L 105.1445580332717 -3.5 L 105.1445580332717 -0.5 L 87.85352901663585 -0.5 Z"/><text text-anchor="middle" pointer-events="none" font-size="8px" fill="#000000" x="65.07227901663585" y="3" font-family="sans-serif">ACTED_IN</text></g><g class="relationship" transform="translate(46.72899008121401 92.4773386135326) rotate(320.72112273907595)"><path class="outline" fill="#A5ABB6" stroke="none" d="M 25 0.5 L 41.134904685684816 0.5 L 41.134904685684816 -0.5 L 25 -0.5 Z M 86.69740468568482 0.5 L 102.83230937136963 0.5 L 102.83230937136963 3.5 L 109.83230937136963 0 L 102.83230937136963 -3.5 L 102.83230937136963 -0.5 L 86.69740468568482 -0.5 Z"/><text text-anchor="middle" pointer-events="none" font-size="8px" fill="#000000" x="63.916154685684816" y="3" font-family="sans-serif">ACTED_IN</text></g><g class="relationship" transform="translate(46.72899008121401 92.4773386135326) rotate(230.36283031507963)"><path class="outline" fill="#A5ABB6" stroke="none" d="M 25 0.5 L 47.14642002061271 0.5 L 47.14642002061271 -0.5 L 25 -0.5 Z M 92.70892002061271 0.5 L 114.85534004122542 0.5 L 114.85534004122542 3.5 L 121.85534004122542 0 L 114.85534004122542 -3.5 L 114.85534004122542 -0.5 L 92.70892002061271 -0.5 Z"/><text text-anchor="middle" pointer-events="none" font-size="8px" fill="#000000" x="69.92767002061271" y="3" transform="rotate(180 69.92767002061271 0)" font-family="sans-serif">ACTED_IN</text></g><g class="relationship" transform="translate(46.72899008121401 92.4773386135326) rotate(518.5652463436472)"><path class="outline" fill="#A5ABB6" stroke="none" d="M 25 0.5 L 49.28360263577268 0.5 L 49.28360263577268 -0.5 L 25 -0.5 Z M 94.84610263577268 0.5 L 119.12970527154536 0.5 L 119.12970527154536 3.5 L 126.12970527154536 0 L 119.12970527154536 -3.5 L 119.12970527154536 -0.5 L 94.84610263577268 -0.5 Z"/><text text-anchor="middle" pointer-events="none" font-size="8px" fill="#000000" x="72.06485263577268" y="3" transform="rotate(180 72.06485263577268 0)" font-family="sans-serif">ACTED_IN</text></g><g class="relationship" transform="translate(46.72899008121401 92.4773386135326) rotate(497.87055338555194)"><path class="outline" fill="#A5ABB6" stroke="none" d="M 25 0.5 L 31.000032955927026 0.5 L 31.000032955927026 -0.5 L 25 -0.5 Z M 76.56253295592703 0.5 L 82.56256591185405 0.5 L 82.56256591185405 3.5 L 89.56256591185405 0 L 82.56256591185405 -3.5 L 82.56256591185405 -0.5 L 76.56253295592703 -0.5 Z"/><text text-anchor="middle" pointer-events="none" font-size="8px" fill="#000000" x="53.781282955927026" y="3" transform="rotate(180 53.781282955927026 0)" font-family="sans-serif">ACTED_IN</text></g><g class="relationship" transform="translate(224.37614684547776 284.9516873103898) rotate(227.7647589012762)"><path class="outline" fill="#A5ABB6" stroke="none" d="M 25 0.5 L 36.11316557386487 0.5 L 36.11316557386487 -0.5 L 25 -0.5 Z M 81.67566557386488 0.5 L 92.78883114772974 0.5 L 92.78883114772974 3.5 L 99.78883114772974 0 L 92.78883114772974 -3.5 L 92.78883114772974 -0.5 L 81.67566557386488 -0.5 Z"/><text text-anchor="middle" pointer-events="none" font-size="8px" fill="#000000" x="58.89441557386487" y="3" transform="rotate(180 58.89441557386487 0)" font-family="sans-serif">ACTED_IN</text></g><g class="relationship" transform="translate(133.23468688013764 314.1562293413878) rotate(273.4174614737052)"><path class="outline" fill="#A5ABB6" stroke="none" d="M 25 0.5 L 34.625613631442754 0.5 L 34.625613631442754 -0.5 L 25 -0.5 Z M 80.18811363144275 0.5 L 89.81372726288551 0.5 L 89.81372726288551 3.5 L 96.81372726288551 0 L 89.81372726288551 -3.5 L 89.81372726288551 -0.5 L 80.18811363144275 -0.5 Z"/><text text-anchor="middle" pointer-events="none" font-size="8px" fill="#000000" x="57.406863631442754" y="3" font-family="sans-serif">ACTED_IN</text></g><g class="relationship" transform="translate(263.559311594051 203.4308118277332) rotate(185.0485346239371)"><path class="outline" fill="#A5ABB6" stroke="none" d="M 25 0.5 L 35.490008857459046 0.5 L 35.490008857459046 -0.5 L 25 -0.5 Z M 81.05250885745905 0.5 L 91.54251771491809 0.5 L 91.54251771491809 3.5 L 98.54251771491809 0 L 91.54251771491809 -3.5 L 91.54251771491809 -0.5 L 81.05250885745905 -0.5 Z"/><text text-anchor="middle" pointer-events="none" font-size="8px" fill="#000000" x="58.271258857459046" y="3" transform="rotate(180 58.271258857459046 0)" font-family="sans-serif">ACTED_IN</text></g><g class="relationship" transform="translate(265.2689744890129 49.64613268388404) rotate(200.43135877208408)"><path class="outline" fill="#A5ABB6" stroke="none" d="M 25 0.5 L 34.6359056200011 0.5 L 34.6359056200011 -0.5 L 25 -0.5 Z M 80.1984056200011 0.5 L 89.8343112400022 0.5 L 89.8343112400022 3.5 L 96.8343112400022 0 L 89.8343112400022 -3.5 L 89.8343112400022 -0.5 L 80.1984056200011 -0.5 Z"/><text text-anchor="middle" pointer-events="none" font-size="8px" fill="#000000" x="57.4171556200011" y="3" transform="rotate(180 57.4171556200011 0)" font-family="sans-serif">ACTED_IN</text></g><g class="relationship" transform="translate(269.43835811427584 -34.77440659445947) rotate(520.5069301826085)"><path class="outline" fill="#A5ABB6" stroke="none" d="M 25 0.5 L 36.48607048970557 0.5 L 36.48607048970557 -0.5 L 25 -0.5 Z M 82.04857048970557 0.5 L 93.53464097941114 0.5 L 93.53464097941114 3.5 L 100.53464097941114 0 L 93.53464097941114 -3.5 L 93.53464097941114 -0.5 L 82.04857048970557 -0.5 Z"/><text text-anchor="middle" pointer-events="none" font-size="8px" fill="#000000" x="59.26732048970557" y="3" transform="rotate(180 59.26732048970557 0)" font-family="sans-serif">ACTED_IN</text></g><g class="relationship" transform="translate(119.26767705134468 -110.8115343940861) rotate(434.89444403813104)"><path class="outline" fill="#A5ABB6" stroke="none" d="M 25 0.5 L 34.79258111539044 0.5 L 34.79258111539044 -0.5 L 25 -0.5 Z M 80.35508111539045 0.5 L 90.14766223078088 0.5 L 90.14766223078088 3.5 L 97.14766223078088 0 L 90.14766223078088 -3.5 L 90.14766223078088 -0.5 L 80.35508111539045 -0.5 Z"/><text text-anchor="middle" pointer-events="none" font-size="8px" fill="#000000" x="57.57383111539044" y="3" font-family="sans-serif">ACTED_IN</text></g><g class="relationship" transform="translate(211.28179211391586 -100.96412806933965) rotate(479.1106255201573)"><path class="outline" fill="#A5ABB6" stroke="none" d="M 25 0.5 L 35.57176416908395 0.5 L 35.57176416908395 -0.5 L 25 -0.5 Z M 81.13426416908395 0.5 L 91.7060283381679 0.5 L 91.7060283381679 3.5 L 98.7060283381679 0 L 91.7060283381679 -3.5 L 91.7060283381679 -0.5 L 81.13426416908395 -0.5 Z"/><text text-anchor="middle" pointer-events="none" font-size="8px" fill="#000000" x="58.35301416908395" y="3" transform="rotate(180 58.35301416908395 0)" font-family="sans-serif">ACTED_IN</text></g><g class="relationship" transform="translate(-97.76654732572132 53.20494961491828) rotate(304.54076696705334)"><path class="outline" fill="#A5ABB6" stroke="none" d="M 25 0.5 L 26.309266358924752 0.5 L 26.309266358924752 -0.5 L 25 -0.5 Z M 56.30926635892475 0.5 L 57.618532717849504 0.5 L 57.618532717849504 3.5 L 64.6185327178495 0 L 57.618532717849504 -3.5 L 57.618532717849504 -0.5 L 56.30926635892475 -0.5 Z"/><text text-anchor="middle" pointer-events="none" font-size="8px" fill="#000000" x="41.30926635892475" y="3" font-family="sans-serif">ACT…</text></g><g class="relationship" transform="translate(-97.76654732572132 53.20494961491828) rotate(447.68592633543193)"><path class="outline" fill="#A5ABB6" stroke="none" d="M 25 0.5 L 26.12132017173834 0.5 L 26.12132017173834 -0.5 L 25 -0.5 Z M 61.45725767173834 0.5 L 62.57857784347668 0.5 L 62.57857784347668 3.5 L 69.57857784347668 0 L 62.57857784347668 -3.5 L 62.57857784347668 -0.5 L 61.45725767173834 -0.5 Z"/><text text-anchor="middle" pointer-events="none" font-size="8px" fill="#000000" x="43.78928892173834" y="3" font-family="sans-serif">ACTE…</text></g><g class="relationship" transform="translate(-97.76654732572132 53.20494961491828) rotate(422.8570793305931)"><path class="outline" fill="#A5ABB6" stroke="none" d="M 25 0.5 L 38.96518422243024 0.5 L 38.96518422243024 -0.5 L 25 -0.5 Z M 84.52768422243024 0.5 L 98.49286844486048 0.5 L 98.49286844486048 3.5 L 105.49286844486048 0 L 98.49286844486048 -3.5 L 98.49286844486048 -0.5 L 84.52768422243024 -0.5 Z"/><text text-anchor="middle" pointer-events="none" font-size="8px" fill="#000000" x="61.74643422243024" y="3" font-family="sans-serif">ACTED_IN</text></g><g class="relationship" transform="translate(-23.079438650061277 69.26383796561626) rotate(255.1244542613743)"><path class="outline" fill="#A5ABB6" stroke="none" d="M 25 0.5 L 25.330251024990183 0.5 L 25.330251024990183 -0.5 L 25 -0.5 Z M 60.66618852499018 0.5 L 60.996439549980366 0.5 L 60.996439549980366 3.5 L 67.99643954998037 0 L 60.996439549980366 -3.5 L 60.996439549980366 -0.5 L 60.66618852499018 -0.5 Z"/><text text-anchor="middle" pointer-events="none" font-size="8px" fill="#000000" x="42.99821977499018" y="3" transform="rotate(180 42.99821977499018 0)" font-family="sans-serif">ACTE…</text></g><g class="relationship" transform="translate(-23.079438650061277 69.26383796561626) rotate(492.095976564111)"><path class="outline" fill="#A5ABB6" stroke="none" d="M 25 0.5 L 26.575986248882103 0.5 L 26.575986248882103 -0.5 L 25 -0.5 Z M 72.1384862488821 0.5 L 73.7144724977642 0.5 L 73.7144724977642 3.5 L 80.7144724977642 0 L 73.7144724977642 -3.5 L 73.7144724977642 -0.5 L 72.1384862488821 -0.5 Z"/><text text-anchor="middle" pointer-events="none" font-size="8px" fill="#000000" x="49.3572362488821" y="3" transform="rotate(180 49.3572362488821 0)" font-family="sans-serif">ACTED_IN</text></g><g class="relationship" transform="translate(-23.079438650061277 69.26383796561626) rotate(458.6121141831773)"><path class="outline" fill="#A5ABB6" stroke="none" d="M 25 0.5 L 26.545395633823823 0.5 L 26.545395633823823 -0.5 L 25 -0.5 Z M 67.65867688382383 0.5 L 69.20407251764765 0.5 L 69.20407251764765 3.5 L 76.20407251764765 0 L 69.20407251764765 -3.5 L 69.20407251764765 -0.5 L 67.65867688382383 -0.5 Z"/><text text-anchor="middle" pointer-events="none" font-size="8px" fill="#000000" x="47.10203625882382" y="3" transform="rotate(180 47.10203625882382 0)" font-family="sans-serif">ACTED…</text></g><g class="relationship" transform="translate(-152.737841544142 76.6889799132503) rotate(317.39084534332136)"><path class="outline" fill="#A5ABB6" stroke="none" d="M 25 0.5 L 45.584184304227804 0.5 L 45.584184304227804 -0.5 L 25 -0.5 Z M 91.1466843042278 0.5 L 111.73086860845561 0.5 L 111.73086860845561 3.5 L 118.73086860845561 0 L 111.73086860845561 -3.5 L 111.73086860845561 -0.5 L 91.1466843042278 -0.5 Z"/><text text-anchor="middle" pointer-events="none" font-size="8px" fill="#000000" x="68.3654343042278" y="3" font-family="sans-serif">ACTED_IN</text></g><g class="relationship" transform="translate(-152.737841544142 76.6889799132503) rotate(410.38113521651763)"><path class="outline" fill="#A5ABB6" stroke="none" d="M 25 0.5 L 27.59704831256532 0.5 L 27.59704831256532 -0.5 L 25 -0.5 Z M 57.59704831256532 0.5 L 60.19409662513064 0.5 L 60.19409662513064 3.5 L 67.19409662513064 0 L 60.19409662513064 -3.5 L 60.19409662513064 -0.5 L 57.59704831256532 -0.5 Z"/><text text-anchor="middle" pointer-events="none" font-size="8px" fill="#000000" x="42.59704831256532" y="3" font-family="sans-serif">ACT…</text></g><g class="relationship" transform="translate(-152.737841544142 76.6889799132503) rotate(398.97417968112654)"><path class="outline" fill="#A5ABB6" stroke="none" d="M 25 0.5 L 47.36122330247812 0.5 L 47.36122330247812 -0.5 L 25 -0.5 Z M 92.92372330247812 0.5 L 115.28494660495625 0.5 L 115.28494660495625 3.5 L 122.28494660495625 0 L 115.28494660495625 -3.5 L 115.28494660495625 -0.5 L 92.92372330247812 -0.5 Z"/><text text-anchor="middle" pointer-events="none" font-size="8px" fill="#000000" x="70.14247330247812" y="3" font-family="sans-serif">ACTED_IN</text></g><g class="relationship" transform="translate(-69.86161821556365 287.95373153088764) rotate(284.92852706193196)"><path class="outline" fill="#A5ABB6" stroke="none" d="M 25 0.5 L 35.1040936037616 0.5 L 35.1040936037616 -0.5 L 25 -0.5 Z M 80.6665936037616 0.5 L 90.7706872075232 0.5 L 90.7706872075232 3.5 L 97.7706872075232 0 L 90.7706872075232 -3.5 L 90.7706872075232 -0.5 L 80.6665936037616 -0.5 Z"/><text text-anchor="middle" pointer-events="none" font-size="8px" fill="#000000" x="57.8853436037616" y="3" font-family="sans-serif">ACTED_IN</text></g></g><g class="layer nodes"><g class="node" transform="translate(46.72899008121401,92.4773386135326)"><circle class="outline" cx="0" cy="0" r="25" fill="#F79767" stroke="#f36924" stroke-width="2px"/><text text-anchor="middle" pointer-events="none" font-family="sans-serif" dy="1.5625" font-size="25" fill="#FFFFFF"/><text text-anchor="middle" pointer-events="none" font-family="sans-serif" dy="1.5625" font-size="25" fill="#FFFFFF"/><text text-anchor="middle" pointer-events="none" y="0" font-size="10px" fill="#FFFFFF" font-family="sans-serif"> Hugo</text><text text-anchor="middle" pointer-events="none" y="10" font-size="10px" fill="#FFFFFF" font-family="sans-serif"> Weaving</text></g><g class="node" transform="translate(140.49607559212328,192.55912253513972)"><circle class="outline" cx="0" cy="0" r="25" fill="#57C7E3" stroke="#23b3d7" stroke-width="2px"/><text text-anchor="middle" pointer-events="none" font-family="sans-serif" dy="1.5625" font-size="25" fill="#FFFFFF"/><text text-anchor="middle" pointer-events="none" font-family="sans-serif" dy="1.5625" font-size="25" fill="#FFFFFF"/><text text-anchor="middle" pointer-events="none" y="0" font-size="10px" fill="#FFFFFF" font-family="sans-serif"> Cloud</text><text text-anchor="middle" pointer-events="none" y="10" font-size="10px" fill="#FFFFFF" font-family="sans-serif"> Atlas</text></g><g class="node" transform="translate(224.37614684547776,284.9516873103898)"><circle class="outline" cx="0" cy="0" r="25" fill="#F79767" stroke="#f36924" stroke-width="2px"/><text text-anchor="middle" pointer-events="none" font-family="sans-serif" dy="1.5625" font-size="25" fill="#FFFFFF"/><text text-anchor="middle" pointer-events="none" font-family="sans-serif" dy="1.5625" font-size="25" fill="#FFFFFF"/><text text-anchor="middle" pointer-events="none" y="0" font-size="10px" fill="#FFFFFF" font-family="sans-serif"> Tom</text><text text-anchor="middle" pointer-events="none" y="10" font-size="10px" fill="#FFFFFF" font-family="sans-serif"> Hanks</text></g><g class="node" transform="translate(133.23468688013764,314.1562293413878)"><circle class="outline" cx="0" cy="0" r="25" fill="#F79767" stroke="#f36924" stroke-width="2px"/><text text-anchor="middle" pointer-events="none" font-family="sans-serif" dy="1.5625" font-size="25" fill="#FFFFFF"/><text text-anchor="middle" pointer-events="none" font-family="sans-serif" dy="1.5625" font-size="25" fill="#FFFFFF"/><text text-anchor="middle" pointer-events="none" y="0" font-size="10px" fill="#FFFFFF" font-family="sans-serif"> Jim</text><text text-anchor="middle" pointer-events="none" y="10" font-size="10px" fill="#FFFFFF" font-family="sans-serif"> Broadb…</text></g><g class="node" transform="translate(263.559311594051,203.4308118277332)"><circle class="outline" cx="0" cy="0" r="25" fill="#F79767" stroke="#f36924" stroke-width="2px"/><text text-anchor="middle" pointer-events="none" font-family="sans-serif" dy="1.5625" font-size="25" fill="#FFFFFF"/><text text-anchor="middle" pointer-events="none" font-family="sans-serif" dy="1.5625" font-size="25" fill="#FFFFFF"/><text text-anchor="middle" pointer-events="none" y="0" font-size="10px" fill="#FFFFFF" font-family="sans-serif"> Halle</text><text text-anchor="middle" pointer-events="none" y="10" font-size="10px" fill="#FFFFFF" font-family="sans-serif"> Berry</text></g><g class="node" transform="translate(151.09912930658413,7.115604279619323)"><circle class="outline" cx="0" cy="0" r="25" fill="#57C7E3" stroke="#23b3d7" stroke-width="2px"/><text text-anchor="middle" pointer-events="none" font-family="sans-serif" dy="1.5625" font-size="25" fill="#FFFFFF"/><text text-anchor="middle" pointer-events="none" font-family="sans-serif" dy="1.5625" font-size="25" fill="#FFFFFF"/><text text-anchor="middle" pointer-events="none" y="0" font-size="10px" fill="#FFFFFF" font-family="sans-serif"> V for</text><text text-anchor="middle" pointer-events="none" y="10" font-size="10px" fill="#FFFFFF" font-family="sans-serif"> Vendetta</text></g><g class="node" transform="translate(265.2689744890129,49.64613268388404)"><circle class="outline" cx="0" cy="0" r="25" fill="#F79767" stroke="#f36924" stroke-width="2px"/><text text-anchor="middle" pointer-events="none" font-family="sans-serif" dy="1.5625" font-size="25" fill="#FFFFFF"/><text text-anchor="middle" pointer-events="none" y="5" font-size="10px" fill="#FFFFFF" font-family="sans-serif"> John Hurt</text></g><g class="node" transform="translate(269.43835811427584,-34.77440659445947)"><circle class="outline" cx="0" cy="0" r="25" fill="#F79767" stroke="#f36924" stroke-width="2px"/><text text-anchor="middle" pointer-events="none" font-family="sans-serif" dy="1.5625" font-size="25" fill="#FFFFFF"/><text text-anchor="middle" pointer-events="none" font-family="sans-serif" dy="1.5625" font-size="25" fill="#FFFFFF"/><text text-anchor="middle" pointer-events="none" y="0" font-size="10px" fill="#FFFFFF" font-family="sans-serif"> Stephen</text><text text-anchor="middle" pointer-events="none" y="10" font-size="10px" fill="#FFFFFF" font-family="sans-serif"> Rea</text></g><g class="node" transform="translate(119.26767705134468,-110.8115343940861)"><circle class="outline" cx="0" cy="0" r="25" fill="#F79767" stroke="#f36924" stroke-width="2px"/><text text-anchor="middle" pointer-events="none" font-family="sans-serif" dy="1.5625" font-size="25" fill="#FFFFFF"/><text text-anchor="middle" pointer-events="none" font-family="sans-serif" dy="1.5625" font-size="25" fill="#FFFFFF"/><text text-anchor="middle" pointer-events="none" y="0" font-size="10px" fill="#FFFFFF" font-family="sans-serif"> Natalie</text><text text-anchor="middle" pointer-events="none" y="10" font-size="10px" fill="#FFFFFF" font-family="sans-serif"> Portman</text></g><g class="node" transform="translate(211.28179211391586,-100.96412806933965)"><circle class="outline" cx="0" cy="0" r="25" fill="#F79767" stroke="#f36924" stroke-width="2px"/><text text-anchor="middle" pointer-events="none" font-family="sans-serif" dy="1.5625" font-size="25" fill="#FFFFFF"/><text text-anchor="middle" pointer-events="none" y="5" font-size="10px" fill="#FFFFFF" font-family="sans-serif"> Ben Miles</text></g><g class="node" transform="translate(-46.953513747790936,-20.615894495050963)"><circle class="outline" cx="0" cy="0" r="25" fill="#57C7E3" stroke="#23b3d7" stroke-width="2px"/><text text-anchor="middle" pointer-events="none" font-family="sans-serif" dy="1.5625" font-size="25" fill="#FFFFFF"/><text text-anchor="middle" pointer-events="none" font-family="sans-serif" dy="1.5625" font-size="25" fill="#FFFFFF"/><text text-anchor="middle" pointer-events="none" font-family="sans-serif" dy="1.5625" font-size="25" fill="#FFFFFF"/><text text-anchor="middle" pointer-events="none" y="-5" font-size="10px" fill="#FFFFFF" font-family="sans-serif"> The</text><text text-anchor="middle" pointer-events="none" y="5" font-size="10px" fill="#FFFFFF" font-family="sans-serif"> Matrix</text><text text-anchor="middle" pointer-events="none" y="15" font-size="10px" fill="#FFFFFF" font-family="sans-serif"> Revol…</text></g><g class="node" transform="translate(-97.76654732572132,53.20494961491828)"><circle class="outline" cx="0" cy="0" r="25" fill="#F79767" stroke="#f36924" stroke-width="2px"/><text text-anchor="middle" pointer-events="none" font-family="sans-serif" dy="1.5625" font-size="25" fill="#FFFFFF"/><text text-anchor="middle" pointer-events="none" font-family="sans-serif" dy="1.5625" font-size="25" fill="#FFFFFF"/><text text-anchor="middle" pointer-events="none" y="0" font-size="10px" fill="#FFFFFF" font-family="sans-serif"> Laurence</text><text text-anchor="middle" pointer-events="none" y="10" font-size="10px" fill="#FFFFFF" font-family="sans-serif"> Fishbur…</text></g><g class="node" transform="translate(-23.079438650061277,69.26383796561626)"><circle class="outline" cx="0" cy="0" r="25" fill="#F79767" stroke="#f36924" stroke-width="2px"/><text text-anchor="middle" pointer-events="none" font-family="sans-serif" dy="1.5625" font-size="25" fill="#FFFFFF"/><text text-anchor="middle" pointer-events="none" y="5" font-size="10px" fill="#FFFFFF" font-family="sans-serif"> Carrie-A…</text></g><g class="node" transform="translate(-152.737841544142,76.6889799132503)"><circle class="outline" cx="0" cy="0" r="25" fill="#F79767" stroke="#f36924" stroke-width="2px"/><text text-anchor="middle" pointer-events="none" font-family="sans-serif" dy="1.5625" font-size="25" fill="#FFFFFF"/><text text-anchor="middle" pointer-events="none" font-family="sans-serif" dy="1.5625" font-size="25" fill="#FFFFFF"/><text text-anchor="middle" pointer-events="none" y="0" font-size="10px" fill="#FFFFFF" font-family="sans-serif"> Keanu</text><text text-anchor="middle" pointer-events="none" y="10" font-size="10px" fill="#FFFFFF" font-family="sans-serif"> Reeves</text></g><g class="node" transform="translate(-93.94772678697917,147.7063993211924)"><circle class="outline" cx="0" cy="0" r="25" fill="#57C7E3" stroke="#23b3d7" stroke-width="2px"/><text text-anchor="middle" pointer-events="none" font-family="sans-serif" dy="1.5625" font-size="25" fill="#FFFFFF"/><text text-anchor="middle" pointer-events="none" font-family="sans-serif" dy="1.5625" font-size="25" fill="#FFFFFF"/><text text-anchor="middle" pointer-events="none" font-family="sans-serif" dy="1.5625" font-size="25" fill="#FFFFFF"/><text text-anchor="middle" pointer-events="none" y="-5" font-size="10px" fill="#FFFFFF" font-family="sans-serif"> The</text><text text-anchor="middle" pointer-events="none" y="5" font-size="10px" fill="#FFFFFF" font-family="sans-serif"> Matrix</text><text text-anchor="middle" pointer-events="none" y="15" font-size="10px" fill="#FFFFFF" font-family="sans-serif"> Reloa…</text></g><g class="node" transform="translate(-38.23418128273944,169.32680848865525)"><circle class="outline" cx="0" cy="0" r="25" fill="#57C7E3" stroke="#23b3d7" stroke-width="2px"/><text text-anchor="middle" pointer-events="none" font-family="sans-serif" dy="1.5625" font-size="25" fill="#FFFFFF"/><text text-anchor="middle" pointer-events="none" font-family="sans-serif" dy="1.5625" font-size="25" fill="#FFFFFF"/><text text-anchor="middle" pointer-events="none" y="0" font-size="10px" fill="#FFFFFF" font-family="sans-serif"> The</text><text text-anchor="middle" pointer-events="none" y="10" font-size="10px" fill="#FFFFFF" font-family="sans-serif"> Matrix</text></g><g class="node" transform="translate(-69.86161821556365,287.95373153088764)"><circle class="outline" cx="0" cy="0" r="25" fill="#F79767" stroke="#f36924" stroke-width="2px"/><text text-anchor="middle" pointer-events="none" font-family="sans-serif" dy="1.5625" font-size="25" fill="#FFFFFF"/><text text-anchor="middle" pointer-events="none" font-family="sans-serif" dy="1.5625" font-size="25" fill="#FFFFFF"/><text text-anchor="middle" pointer-events="none" y="0" font-size="10px" fill="#FFFFFF" font-family="sans-serif"> Emil</text><text text-anchor="middle" pointer-events="none" y="10" font-size="10px" fill="#FFFFFF" font-family="sans-serif"> Eifrem</text></g></g></svg>