<svg xmlns="http://www.w3.org/2000/svg" width="333.1912536621094" height="362.68780517578125" viewBox="-41.04144287109375 -74.11308288574219 333.1912536621094 362.68780517578125"><title>Neo4j Graph Visualization</title><desc>Created using Neo4j (http://www.neo4j.com/)</desc><g class="layer relationships"><g class="relationship" transform="translate(219.70357509752708 259.574692251323) rotate(249.96059463788816)"><path class="outline" fill="#A5ABB6" stroke="none" d="M 25 0.5 L 28.62149518708918 0.5 L 28.62149518708918 -0.5 L 25 -0.5 Z M 75.51212018708918 0.5 L 79.13361537417836 0.5 L 79.13361537417836 3.5 L 86.13361537417836 0 L 79.13361537417836 -3.5 L 79.13361537417836 -0.5 L 75.51212018708918 -0.5 Z"/><text text-anchor="middle" pointer-events="none" font-size="8px" fill="#000000" x="52.06680768708918" y="3" transform="rotate(180 52.06680768708918 0)" font-family="sans-serif">DIRECTED</text></g><g class="relationship" transform="translate(93.67743638760234 116.79609862057445) rotate(325.11204305112716)"><path class="outline" fill="#A5ABB6" stroke="none" d="M 24.018736134675446,6.953439040707552 L 24.277555179777966,5.987513214418485 A 151.90729149799503 151.90729149799503 0 0 0 35.93495809103533,8.624337581085427 L 35.75287929188348,9.607621523240198 A 152.90729149799503 152.90729149799503 0 0 1 24.018736134675446,6.953439040707552 Z M 87.44997619581517,10.291216675853178 L 87.29396060850925,9.30346208258743 A 151.90729149799503 151.90729149799503 0 0 0 99.01700935793663,6.975799436371592 L 98.31744542589841,4.058504404155748 L 105.94062508844662,5.829699433651742 L 99.94976126732091,10.865526145992716 L 99.25019733528269,7.948231113776872 A 152.90729149799503 152.90729149799503 0 0 1 87.44997619581517,10.291216675853178"/><text text-anchor="middle" pointer-events="none" font-size="8px" fill="#000000" x="61.57893676773126" y="14.650306192433618" font-family="sans-serif">PRODUCED</text></g><g class="relationship" transform="translate(93.67743638760234 116.79609862057445) rotate(325.11204305112716)"><path class="outline" fill="#A5ABB6" stroke="none" d="M 24.018736134675446,-6.953439040707552 L 24.277555179777966,-5.987513214418485 A 151.90729149799503 151.90729149799503 0 0 1 43.813778963801695,-9.870300245788712 L 43.683566146822734,-10.861786313413688 A 152.90729149799503 152.90729149799503 0 0 0 24.018736134675446,-6.953439040707552 Z M 79.48890015814398,-11.335243320357648 L 79.38494929554595,-10.340660886285377 A 151.90729149799503 151.90729149799503 0 0 1 99.01700935793663,-6.975799436371592 L 98.31744542589841,-4.058504404155748 L 105.94062508844662,-5.829699433651742 L 99.94976126732091,-10.865526145992716 L 99.25019733528269,-7.948231113776872 A 152.90729149799503 152.90729149799503 0 0 0 79.48890015814398,-11.335243320357648"/><text text-anchor="middle" pointer-events="none" font-size="8px" fill="#000000" x="61.57893676773124" y="-8.650306192433618" font-family="sans-serif">WROTE</text></g><g class="relationship" transform="translate(93.67743638760234 116.79609862057445) rotate(383.57338605242654)"><path class="outline" fill="#A5ABB6" stroke="none" d="M 25 0.5 L 25.03053418649062 0.5 L 25.03053418649062 -0.5 L 25 -0.5 Z M 63.92115918649062 0.5 L 63.95169337298124 0.5 L 63.95169337298124 3.5 L 70.95169337298124 0 L 63.95169337298124 -3.5 L 63.95169337298124 -0.5 L 63.92115918649062 -0.5 Z"/><text text-anchor="middle" pointer-events="none" font-size="8px" fill="#000000" x="44.47584668649062" y="3" font-family="sans-serif">DIREC…</text></g><g class="relationship" transform="translate(93.67743638760234 116.79609862057445) rotate(238.8447938785215)"><path class="outline" fill="#A5ABB6" stroke="none" d="M 25 0.5 L 39.33608843938855 0.5 L 39.33608843938855 -0.5 L 25 -0.5 Z M 86.22671343938855 0.5 L 100.5628018787771 0.5 L 100.5628018787771 3.5 L 107.5628018787771 0 L 100.5628018787771 -3.5 L 100.5628018787771 -0.5 L 86.22671343938855 -0.5 Z"/><text text-anchor="middle" pointer-events="none" font-size="8px" fill="#000000" x="62.78140093938855" y="3" transform="rotate(180 62.78140093938855 0)" font-family="sans-serif">DIRECTED</text></g><g class="relationship" transform="translate(93.67743638760234 116.79609862057445) rotate(198.42185904028292)"><path class="outline" fill="#A5ABB6" stroke="none" d="M 25 0.5 L 28.769186548400846 0.5 L 28.769186548400846 -0.5 L 25 -0.5 Z M 75.65981154840085 0.5 L 79.42899809680169 0.5 L 79.42899809680169 3.5 L 86.42899809680169 0 L 79.42899809680169 -3.5 L 79.42899809680169 -0.5 L 75.65981154840085 -0.5 Z"/><text text-anchor="middle" pointer-events="none" font-size="8px" fill="#000000" x="52.214499048400846" y="3" transform="rotate(180 52.214499048400846 0)" font-family="sans-serif">DIRECTED</text></g><g class="relationship" transform="translate(93.67743638760234 116.79609862057445) rotate(507.19041321746613)"><path class="outline" fill="#A5ABB6" stroke="none" d="M 25 0.5 L 25.30948024738756 0.5 L 25.30948024738756 -0.5 L 25 -0.5 Z M 58.42276149738756 0.5 L 58.73224174477512 0.5 L 58.73224174477512 3.5 L 65.73224174477512 0 L 58.73224174477512 -3.5 L 58.73224174477512 -0.5 L 58.42276149738756 -0.5 Z"/><text text-anchor="middle" pointer-events="none" font-size="8px" fill="#000000" x="41.86612087238756" y="3" transform="rotate(180 41.86612087238756 0)" font-family="sans-serif">DIRE…</text></g><g class="relationship" transform="translate(100.45375476178114 57.2104236904429) rotate(351.5225034513003)"><path class="outline" fill="#A5ABB6" stroke="none" d="M 24.018736134675446,6.953439040707552 L 24.277555179777966,5.987513214418485 A 94.0266088991437 94.0266088991437 0 0 0 25.929401026015576,6.414100609922272 L 25.68814983607211,7.384563315723412 A 95.0266088991437 95.0266088991437 0 0 1 24.018736134675446,6.953439040707552 Z M 68.43069662941448,8.102033299772089 L 68.22215225905644,7.1240203931129 A 94.0266088991437 94.0266088991437 0 0 0 69.88738473366797,6.753112977125895 L 69.20862094520024,3.8309083779465465 L 76.81898942983108,5.6563649038977495 L 70.79240311829162,10.649385776031693 L 70.11363932982388,7.727181176852344 A 95.0266088991437 95.0266088991437 0 0 1 68.43069662941448,8.102033299772089"/><text text-anchor="middle" pointer-events="none" font-size="8px" fill="#000000" x="47.026946312513175" y="12.678077899231823" font-family="sans-serif">PRODU…</text></g><g class="relationship" transform="translate(100.45375476178114 57.2104236904429) rotate(351.5225034513003)"><path class="outline" fill="#A5ABB6" stroke="none" d="M 24.018736134675446,-6.953439040707552 L 24.277555179777966,-5.987513214418485 A 94.0266088991437 94.0266088991437 0 0 1 29.37987757649213,-7.203218516815781 L 29.17532319600372,-8.182073718274609 A 95.0266088991437 95.0266088991437 0 0 0 24.018736134675446,-6.953439040707552 Z M 64.91872160271069,-8.782057046565669 L 64.74713503888061,-7.796887999593025 A 94.0266088991437 94.0266088991437 0 0 1 69.88738473366797,-6.753112977125895 L 69.20862094520024,-3.8309083779465465 L 76.81898942983108,-5.6563649038977495 L 70.79240311829162,-10.649385776031693 L 70.11363932982388,-7.727181176852344 A 95.0266088991437 95.0266088991437 0 0 0 64.91872160271069,-8.782057046565669"/><text text-anchor="middle" pointer-events="none" font-size="8px" fill="#000000" x="47.026946312513154" y="-6.678077899231823" font-family="sans-serif">WROTE</text></g><g class="relationship" transform="translate(100.45375476178114 57.2104236904429) rotate(410.3551156301855)"><path class="outline" fill="#A5ABB6" stroke="none" d="M 25 0.5 L 36.66329690974682 0.5 L 36.66329690974682 -0.5 L 25 -0.5 Z M 83.55392190974682 0.5 L 95.21721881949364 0.5 L 95.21721881949364 3.5 L 102.21721881949364 0 L 95.21721881949364 -3.5 L 95.21721881949364 -0.5 L 83.55392190974682 -0.5 Z"/><text text-anchor="middle" pointer-events="none" font-size="8px" fill="#000000" x="60.10860940974682" y="3" font-family="sans-serif">DIRECTED</text></g><g class="relationship" transform="translate(100.45375476178114 57.2104236904429) rotate(215.55266454892273)"><path class="outline" fill="#A5ABB6" stroke="none" d="M 25 0.5 L 26.256340667927603 0.5 L 26.256340667927603 -0.5 L 25 -0.5 Z M 59.3696219179276 0.5 L 60.625962585855206 0.5 L 60.625962585855206 3.5 L 67.6259625858552 0 L 60.625962585855206 -3.5 L 60.625962585855206 -0.5 L 59.3696219179276 -0.5 Z"/><text text-anchor="middle" pointer-events="none" font-size="8px" fill="#000000" x="42.8129812929276" y="3" transform="rotate(180 42.8129812929276 0)" font-family="sans-serif">DIRE…</text></g><g class="relationship" transform="translate(100.45375476178114 57.2104236904429) rotate(527.7754005755485)"><path class="outline" fill="#A5ABB6" stroke="none" d="M 25 0.5 L 30.60728605066351 0.5 L 30.60728605066351 -0.5 L 25 -0.5 Z M 77.4979110506635 0.5 L 83.10519710132702 0.5 L 83.10519710132702 3.5 L 90.10519710132702 0 L 83.10519710132702 -3.5 L 83.10519710132702 -0.5 L 77.4979110506635 -0.5 Z"/><text text-anchor="middle" pointer-events="none" font-size="8px" fill="#000000" x="54.05259855066351" y="3" transform="rotate(180 54.05259855066351 0)" font-family="sans-serif">DIRECTED</text></g><g class="relationship" transform="translate(100.45375476178114 57.2104236904429) rotate(487.3633480869934)"><path class="outline" fill="#A5ABB6" stroke="none" d="M 25 0.5 L 41.46713455011191 0.5 L 41.46713455011191 -0.5 L 25 -0.5 Z M 88.35775955011191 0.5 L 104.82489410022382 0.5 L 104.82489410022382 3.5 L 111.82489410022382 0 L 104.82489410022382 -3.5 L 104.82489410022382 -0.5 L 88.35775955011191 -0.5 Z"/><text text-anchor="middle" pointer-events="none" font-size="8px" fill="#000000" x="64.91244705011191" y="3" transform="rotate(180 64.91244705011191 0)" font-family="sans-serif">DIRECTED</text></g><g class="relationship" transform="translate(263.1498231042189 -45.113088095863446) rotate(485.6226171338592)"><path class="outline" fill="#A5ABB6" stroke="none" d="M 25 0.5 L 26.820193518061586 0.5 L 26.820193518061586 -0.5 L 25 -0.5 Z M 73.71081851806159 0.5 L 75.53101203612317 0.5 L 75.53101203612317 3.5 L 82.53101203612317 0 L 75.53101203612317 -3.5 L 75.53101203612317 -0.5 L 73.71081851806159 -0.5 Z"/><text text-anchor="middle" pointer-events="none" font-size="8px" fill="#000000" x="50.265506018061586" y="3" transform="rotate(180 50.265506018061586 0)" font-family="sans-serif">DIRECTED</text></g></g><g class="layer nodes"><g class="node" transform="translate(181.62182596651195,155.1694201178802)"><circle class="outline" cx="0" cy="0" r="25" fill="#57C7E3" stroke="#23b3d7" stroke-width="2px"/><text text-anchor="middle" pointer-events="none" font-family="sans-serif" dy="1.5625" font-size="25" fill="#FFFFFF"/><text text-anchor="middle" pointer-events="none" font-family="sans-serif" dy="1.5625" font-size="25" fill="#FFFFFF"/><text text-anchor="middle" pointer-events="none" y="0" font-size="10px" fill="#FFFFFF" font-family="sans-serif"> Cloud</text><text text-anchor="middle" pointer-events="none" y="10" font-size="10px" fill="#FFFFFF" font-family="sans-serif"> Atlas</text></g><g class="node" transform="translate(219.70357509752708,259.574692251323)"><circle class="outline" cx="0" cy="0" r="25" fill="#F79767" stroke="#f36924" stroke-width="2px"/><text text-anchor="middle" pointer-events="none" font-family="sans-serif" dy="1.5625" font-size="25" fill="#FFFFFF"/><text text-anchor="middle" pointer-events="none" font-family="sans-serif" dy="1.5625" font-size="25" fill="#FFFFFF"/><text text-anchor="middle" pointer-events="none" y="0" font-size="10px" fill="#FFFFFF" font-family="sans-serif"> Tom</text><text text-anchor="middle" pointer-events="none" y="10" font-size="10px" fill="#FFFFFF" font-family="sans-serif"> Tykwer</text></g><g class="node" transform="translate(93.67743638760234,116.79609862057445)"><circle class="outline" cx="0" cy="0" r="25" fill="#F79767" stroke="#f36924" stroke-width="2px"/><text text-anchor="middle" pointer-events="none" font-family="sans-serif" dy="1.5625" font-size="25" fill="#FFFFFF"/><text text-anchor="middle" pointer-events="none" font-family="sans-serif" dy="1.5625" font-size="25" fill="#FFFFFF"/><text text-anchor="middle" pointer-events="none" y="0" font-size="10px" fill="#FFFFFF" font-family="sans-serif"> Lana</text><text text-anchor="middle" pointer-events="none" y="10" font-size="10px" fill="#FFFFFF" font-family="sans-serif"> Wacho…</text></g><g class="node" transform="translate(100.45375476178114,57.2104236904429)"><circle class="outline" cx="0" cy="0" r="25" fill="#F79767" stroke="#f36924" stroke-width="2px"/><text text-anchor="middle" pointer-events="none" font-family="sans-serif" dy="1.5625" font-size="25" fill="#FFFFFF"/><text text-anchor="middle" pointer-events="none" font-family="sans-serif" dy="1.5625" font-size="25" fill="#FFFFFF"/><text text-anchor="middle" pointer-events="none" y="0" font-size="10px" fill="#FFFFFF" font-family="sans-serif"> Lilly</text><text text-anchor="middle" pointer-events="none" y="10" font-size="10px" fill="#FFFFFF" font-family="sans-serif"> Wacho…</text></g><g class="node" transform="translate(200.51904205102423,42.29574334684409)"><circle class="outline" cx="0" cy="0" r="25" fill="#57C7E3" stroke="#23b3d7" stroke-width="2px"/><text text-anchor="middle" pointer-events="none" font-family="sans-serif" dy="1.5625" font-size="25" fill="#FFFFFF"/><text text-anchor="middle" pointer-events="none" font-family="sans-serif" dy="1.5625" font-size="25" fill="#FFFFFF"/><text text-anchor="middle" pointer-events="none" y="0" font-size="10px" fill="#FFFFFF" font-family="sans-serif"> V for</text><text text-anchor="middle" pointer-events="none" y="10" font-size="10px" fill="#FFFFFF" font-family="sans-serif"> Vendetta</text></g><g class="node" transform="translate(263.1498231042189,-45.113088095863446)"><circle class="outline" cx="0" cy="0" r="25" fill="#F79767" stroke="#f36924" stroke-width="2px"/><text text-anchor="middle" pointer-events="none" font-family="sans-serif" dy="1.5625" font-size="25" fill="#FFFFFF"/><text text-anchor="middle" pointer-events="none" font-family="sans-serif" dy="1.5625" font-size="25" fill="#FFFFFF"/><text text-anchor="middle" pointer-events="none" y="0" font-size="10px" fill="#FFFFFF" font-family="sans-serif"> James</text><text text-anchor="middle" pointer-events="none" y="10" font-size="10px" fill="#FFFFFF" font-family="sans-serif"> Marshall</text></g><g class="node" transform="translate(25.094993526668873,3.352963203843749)"><circle class="outline" cx="0" cy="0" r="25" fill="#57C7E3" stroke="#23b3d7" stroke-width="2px"/><text text-anchor="middle" pointer-events="none" font-family="sans-serif" dy="1.5625" font-size="25" fill="#FFFFFF"/><text text-anchor="middle" pointer-events="none" font-family="sans-serif" dy="1.5625" font-size="25" fill="#FFFFFF"/><text text-anchor="middle" pointer-events="none" font-family="sans-serif" dy="1.5625" font-size="25" fill="#FFFFFF"/><text text-anchor="middle" pointer-events="none" y="-5" font-size="10px" fill="#FFFFFF" font-family="sans-serif"> The</text><text text-anchor="middle" pointer-events="none" y="5" font-size="10px" fill="#FFFFFF" font-family="sans-serif"> Matrix</text><text text-anchor="middle" pointer-events="none" y="15" font-size="10px" fill="#FFFFFF" font-family="sans-serif"> Revol…</text></g><g class="node" transform="translate(-12.041440491709494,81.58330707781342)"><circle class="outline" cx="0" cy="0" r="25" fill="#57C7E3" stroke="#23b3d7" stroke-width="2px"/><text text-anchor="middle" pointer-events="none" font-family="sans-serif" dy="1.5625" font-size="25" fill="#FFFFFF"/><text text-anchor="middle" pointer-events="none" font-family="sans-serif" dy="1.5625" font-size="25" fill="#FFFFFF"/><text text-anchor="middle" pointer-events="none" font-family="sans-serif" dy="1.5625" font-size="25" fill="#FFFFFF"/><text text-anchor="middle" pointer-events="none" y="-5" font-size="10px" fill="#FFFFFF" font-family="sans-serif"> The</text><text text-anchor="middle" pointer-events="none" y="5" font-size="10px" fill="#FFFFFF" font-family="sans-serif"> Matrix</text><text text-anchor="middle" pointer-events="none" y="15" font-size="10px" fill="#FFFFFF" font-family="sans-serif"> Reloa…</text></g><g class="node" transform="translate(17.419169074387906,165.95925920264693)"><circle class="outline" cx="0" cy="0" r="25" fill="#57C7E3" stroke="#23b3d7" stroke-width="2px"/><text text-anchor="middle" pointer-events="none" font-family="sans-serif" dy="1.5625" font-size="25" fill="#FFFFFF"/><text text-anchor="middle" pointer-events="none" font-family="sans-serif" dy="1.5625" font-size="25" fill="#FFFFFF"/><text text-anchor="middle" pointer-events="none" y="0" font-size="10px" fill="#FFFFFF" font-family="sans-serif"> The</text><text text-anchor="middle" pointer-events="none" y="10" font-size="10px" fill="#FFFFFF" font-family="sans-serif"> Matrix</text></g></g></svg>